<svg width="202" height="128" viewBox="0 0 202 128" fill="none" xmlns="http://www.w3.org/2000/svg">
<path d="M3.0691 96.4545V76.8182L40.5236 17.9091H58.3418V44.0909H48.16L27.9782 76.0909V76.8182H83.2509V96.4545H3.0691ZM48.3418 111V90.4545L48.8873 81.9091V17.9091H72.5236V111H48.3418Z" fill="#184680"/>
<path d="M100.977 113.545C92.5227 113.515 85.2197 111.561 79.0682 107.682C72.9167 103.803 68.1742 98.2121 64.8409 90.9091C61.5076 83.6061 59.8561 74.8485 59.8864 64.6364C59.9167 54.3939 61.5833 45.697 64.8864 38.5455C68.2197 31.3939 72.947 25.9545 79.0682 22.2273C85.2197 18.5 92.5227 16.6364 100.977 16.6364C109.432 16.6364 116.735 18.5151 122.886 22.2727C129.038 26 133.78 31.4394 137.114 38.5909C140.447 45.7424 142.098 54.4242 142.068 64.6364C142.068 74.9091 140.402 83.697 137.068 91C133.735 98.303 128.992 103.894 122.841 107.773C116.72 111.621 109.432 113.545 100.977 113.545ZM100.977 93C105.341 93 108.917 90.7273 111.705 86.1818C114.523 81.6061 115.917 74.4242 115.886 64.6364C115.886 58.2424 115.25 53.0151 113.977 48.9545C112.705 44.8939 110.947 41.8939 108.705 39.9545C106.462 37.9848 103.886 37 100.977 37C96.6136 37 93.053 39.2121 90.2955 43.6364C87.5379 48.0606 86.1288 55.0606 86.0682 64.6364C86.0379 71.1515 86.6591 76.5151 87.9318 80.7273C89.2045 84.9091 90.9621 88 93.2045 90C95.4773 92 98.0682 93 100.977 93Z" fill="#3E97D9"/>
<path d="M119.601 96.4545V76.8182L157.056 17.9091H174.874V44.0909H164.692L144.51 76.0909V76.8182H199.783V96.4545H119.601ZM164.874 111V90.4545L165.42 81.9091V17.9091H189.056V111H164.874Z" fill="#184680"/>
</svg>
