<svg width="22" height="22" viewBox="0 0 22 22" fill="none" xmlns="http://www.w3.org/2000/svg">
<path d="M13.7804 2.65291C15.3176 1.1157 17.8099 1.1157 19.3471 2.65291C20.8843 4.19013 20.8843 6.68245 19.3471 8.21967L15.7197 11.8471C14.1825 13.3843 11.6902 13.3843 10.1529 11.8471C10.0399 11.7341 9.93544 11.6162 9.83935 11.4941C9.58315 11.1686 9.11161 11.1125 8.78613 11.3687C8.46066 11.6249 8.40451 12.0964 8.66071 12.4219C8.79339 12.5904 8.93727 12.7527 9.09228 12.9077C11.2153 15.0308 14.6574 15.0308 16.7804 12.9077L20.4078 9.28033C22.5308 7.15733 22.5308 3.71526 20.4078 1.59225C18.2848 -0.530751 14.8427 -0.530751 12.7197 1.59225L9.71966 4.59229C9.42677 4.88518 9.42677 5.36006 9.71966 5.65295C10.0126 5.94584 10.4874 5.94584 10.7803 5.65295L13.7804 2.65291Z" fill="#3D5CFF"/>
<path d="M6.28033 10.1529C7.81755 8.6157 10.3099 8.6157 11.8471 10.1529C11.9601 10.266 12.0647 10.3839 12.1607 10.5059C12.4169 10.8313 12.8884 10.8875 13.2139 10.6313C13.5394 10.3751 13.5955 9.90352 13.3393 9.57805C13.2066 9.40945 13.0627 9.2472 12.9077 9.09225C10.7847 6.96925 7.34267 6.96925 5.21967 9.09225L1.59225 12.7197C-0.530751 14.8427 -0.530751 18.2847 1.59225 20.4077C3.71526 22.5308 7.15733 22.5308 9.28033 20.4077L12.2803 17.4077C12.5732 17.1149 12.5732 16.64 12.2803 16.3471C11.9874 16.0542 11.5126 16.0542 11.2197 16.3471L8.21967 19.3471C6.68245 20.8843 4.19013 20.8843 2.65291 19.3471C1.1157 17.8099 1.1157 15.3175 2.65291 13.7803L6.28033 10.1529Z" fill="#3D5CFF"/>
</svg>
