<svg width="215" height="210" viewBox="0 0 215 210" fill="none" xmlns="http://www.w3.org/2000/svg">
<path d="M150.281 77.7005H147.31C147.241 77.7035 147.173 77.6927 147.109 77.6685C147.045 77.6444 146.986 77.6075 146.936 77.5601C146.887 77.5127 146.847 77.4557 146.82 77.3926C146.793 77.3295 146.78 77.2616 146.78 77.193C146.78 77.1244 146.793 77.0565 146.82 76.9934C146.847 76.9303 146.887 76.8733 146.936 76.8259C146.986 76.7785 147.045 76.7416 147.109 76.7175C147.173 76.6933 147.241 76.6825 147.31 76.6855H150.331C150.402 76.6843 150.472 76.6994 150.536 76.7296C150.6 76.7597 150.657 76.8042 150.701 76.8595C150.737 76.9064 150.761 76.961 150.772 77.0191C150.783 77.0771 150.78 77.1369 150.763 77.1935C150.769 77.2567 150.762 77.3204 150.741 77.3806C150.721 77.4407 150.688 77.4959 150.645 77.5425C150.599 77.5926 150.542 77.6325 150.48 77.6597C150.417 77.6869 150.349 77.7008 150.281 77.7005ZM144.289 77.7005H141.268C141.199 77.7035 141.131 77.6927 141.067 77.6685C141.003 77.6444 140.944 77.6075 140.894 77.5601C140.845 77.5127 140.805 77.4557 140.778 77.3926C140.751 77.3295 140.738 77.2616 140.738 77.193C140.738 77.1244 140.751 77.0565 140.778 76.9934C140.805 76.9303 140.845 76.8733 140.894 76.8259C140.944 76.7785 141.003 76.7416 141.067 76.7175C141.131 76.6933 141.199 76.6825 141.268 76.6855H144.292C144.361 76.6825 144.429 76.6933 144.493 76.7175C144.557 76.7416 144.616 76.7785 144.666 76.8259C144.715 76.8733 144.755 76.9303 144.782 76.9934C144.809 77.0565 144.823 77.1244 144.823 77.193C144.823 77.2616 144.809 77.3295 144.782 77.3926C144.755 77.4557 144.715 77.5127 144.666 77.5601C144.616 77.6075 144.557 77.6444 144.493 77.6685C144.429 77.6927 144.361 77.7035 144.292 77.7005H144.289ZM138.22 77.7005H135.199C135.068 77.6947 134.945 77.6387 134.854 77.5442C134.764 77.4496 134.714 77.3238 134.714 77.193C134.714 77.0622 134.764 76.9364 134.854 76.8419C134.945 76.7473 135.068 76.6913 135.199 76.6855H138.22C138.351 76.6913 138.474 76.7473 138.565 76.8419C138.655 76.9364 138.706 77.0622 138.706 77.193C138.706 77.3238 138.655 77.4496 138.565 77.5442C138.474 77.6387 138.351 77.6947 138.22 77.7005ZM132.152 77.7005H129.13C128.999 77.6947 128.876 77.6387 128.785 77.5442C128.695 77.4496 128.645 77.3238 128.645 77.193C128.645 77.0622 128.695 76.9364 128.785 76.8419C128.876 76.7473 128.999 76.6913 129.13 76.6855H132.152C132.283 76.6913 132.406 76.7473 132.497 76.8419C132.587 76.9364 132.638 77.0622 132.638 77.193C132.638 77.3238 132.587 77.4496 132.497 77.5442C132.406 77.6387 132.283 77.6947 132.152 77.7005ZM126.083 77.7005H123.063C122.994 77.7035 122.926 77.6927 122.862 77.6685C122.798 77.6444 122.739 77.6075 122.689 77.5601C122.64 77.5127 122.6 77.4557 122.573 77.3926C122.546 77.3295 122.533 77.2616 122.533 77.193C122.533 77.1244 122.546 77.0565 122.573 76.9934C122.6 76.9303 122.64 76.8733 122.689 76.8259C122.739 76.7785 122.798 76.7416 122.862 76.7175C122.926 76.6933 122.994 76.6825 123.063 76.6855H126.084C126.153 76.6825 126.221 76.6933 126.285 76.7175C126.349 76.7416 126.408 76.7785 126.458 76.8259C126.507 76.8733 126.547 76.9303 126.574 76.9934C126.601 77.0565 126.615 77.1244 126.615 77.193C126.615 77.2616 126.601 77.3295 126.574 77.3926C126.547 77.4557 126.507 77.5127 126.458 77.5601C126.408 77.6075 126.349 77.6444 126.285 77.6685C126.221 77.6927 126.153 77.7035 126.084 77.7005H126.083ZM120.04 77.7005H117.019C116.888 77.6947 116.765 77.6387 116.674 77.5442C116.584 77.4496 116.534 77.3238 116.534 77.193C116.534 77.0622 116.584 76.9364 116.674 76.8419C116.765 76.7473 116.888 76.6913 117.019 76.6855H120.041C120.172 76.6913 120.295 76.7473 120.386 76.8419C120.476 76.9364 120.527 77.0622 120.527 77.193C120.527 77.3238 120.476 77.4496 120.386 77.5442C120.295 77.6387 120.172 77.6947 120.041 77.7005H120.04ZM113.971 77.7005H110.951C110.82 77.6947 110.697 77.6387 110.606 77.5442C110.516 77.4496 110.466 77.3238 110.466 77.193C110.466 77.0622 110.516 76.9364 110.606 76.8419C110.697 76.7473 110.82 76.6913 110.951 76.6855H113.972C114.103 76.6913 114.226 76.7473 114.317 76.8419C114.407 76.9364 114.458 77.0622 114.458 77.193C114.458 77.3238 114.407 77.4496 114.317 77.5442C114.226 77.6387 114.103 77.6947 113.972 77.7005H113.971ZM107.902 77.7005H104.883C104.814 77.7035 104.746 77.6927 104.682 77.6685C104.618 77.6444 104.559 77.6075 104.509 77.5601C104.46 77.5127 104.42 77.4557 104.393 77.3926C104.366 77.3295 104.353 77.2616 104.353 77.193C104.353 77.1244 104.366 77.0565 104.393 76.9934C104.42 76.9303 104.46 76.8733 104.509 76.8259C104.559 76.7785 104.618 76.7416 104.682 76.7175C104.746 76.6933 104.814 76.6825 104.883 76.6855H107.904C107.973 76.6825 108.041 76.6933 108.105 76.7175C108.169 76.7416 108.228 76.7785 108.278 76.8259C108.327 76.8733 108.367 76.9303 108.394 76.9934C108.421 77.0565 108.435 77.1244 108.435 77.193C108.435 77.2616 108.421 77.3295 108.394 77.3926C108.367 77.4557 108.327 77.5127 108.278 77.5601C108.228 77.6075 108.169 77.6444 108.105 77.6685C108.041 77.6927 107.973 77.7035 107.904 77.7005H107.902ZM101.834 77.7005H98.815C98.7465 77.7035 98.6781 77.6927 98.6138 77.6685C98.5496 77.6444 98.4909 77.6075 98.4414 77.5601C98.3918 77.5127 98.3523 77.4557 98.3254 77.3926C98.2984 77.3295 98.2845 77.2616 98.2845 77.193C98.2845 77.1244 98.2984 77.0565 98.3254 76.9934C98.3523 76.9303 98.3918 76.8733 98.4414 76.8259C98.4909 76.7785 98.5496 76.7416 98.6138 76.7175C98.6781 76.6933 98.7465 76.6825 98.815 76.6855H101.836C101.967 76.6913 102.09 76.7473 102.181 76.8419C102.271 76.9364 102.322 77.0622 102.322 77.193C102.322 77.3238 102.271 77.4496 102.181 77.5442C102.09 77.6387 101.967 77.6947 101.836 77.7005H101.834ZM95.79 77.7005H92.771C92.7025 77.7035 92.634 77.6927 92.5698 77.6685C92.5056 77.6444 92.4469 77.6075 92.3974 77.5601C92.3478 77.5127 92.3083 77.4557 92.2814 77.3926C92.2544 77.3295 92.2405 77.2616 92.2405 77.193C92.2405 77.1244 92.2544 77.0565 92.2814 76.9934C92.3083 76.9303 92.3478 76.8733 92.3974 76.8259C92.4469 76.7785 92.5056 76.7416 92.5698 76.7175C92.634 76.6933 92.7025 76.6825 92.771 76.6855H95.792C95.8606 76.6825 95.929 76.6933 95.9933 76.7175C96.0575 76.7416 96.1161 76.7785 96.1657 76.8259C96.2153 76.8733 96.2548 76.9303 96.2817 76.9934C96.3087 77.0565 96.3226 77.1244 96.3226 77.193C96.3226 77.2616 96.3087 77.3295 96.2817 77.3926C96.2548 77.4557 96.2153 77.5127 96.1657 77.5601C96.1161 77.6075 96.0575 77.6444 95.9933 77.6685C95.929 77.6927 95.8606 77.7035 95.792 77.7005H95.79ZM89.722 77.7005H86.702C86.5713 77.6947 86.4479 77.6387 86.3575 77.5442C86.267 77.4496 86.2166 77.3238 86.2166 77.193C86.2166 77.0622 86.267 76.9364 86.3575 76.8419C86.4479 76.7473 86.5713 76.6913 86.702 76.6855H89.724C89.8547 76.6913 89.9782 76.7473 90.0686 76.8419C90.159 76.9364 90.2095 77.0622 90.2095 77.193C90.2095 77.3238 90.159 77.4496 90.0686 77.5442C89.9782 77.6387 89.8547 77.6947 89.724 77.7005H89.722ZM83.653 77.7005H80.635C80.5043 77.6947 80.3809 77.6387 80.2905 77.5442C80.2 77.4496 80.1496 77.3238 80.1496 77.193C80.1496 77.0622 80.2 76.9364 80.2905 76.8419C80.3809 76.7473 80.5043 76.6913 80.635 76.6855H83.656C83.7867 76.6913 83.9102 76.7473 84.0006 76.8419C84.091 76.9364 84.1415 77.0622 84.1415 77.193C84.1415 77.3238 84.091 77.4496 84.0006 77.5442C83.9102 77.6387 83.7867 77.6947 83.656 77.7005H83.653ZM77.584 77.7005H74.566C74.4975 77.7035 74.4291 77.6927 74.3648 77.6685C74.3006 77.6444 74.2419 77.6075 74.1924 77.5601C74.1428 77.5127 74.1033 77.4557 74.0764 77.3926C74.0494 77.3295 74.0355 77.2616 74.0355 77.193C74.0355 77.1244 74.0494 77.0565 74.0764 76.9934C74.1033 76.9303 74.1428 76.8733 74.1924 76.8259C74.2419 76.7785 74.3006 76.7416 74.3648 76.7175C74.4291 76.6933 74.4975 76.6825 74.566 76.6855H77.592C77.6606 76.6825 77.729 76.6933 77.7933 76.7175C77.8575 76.7416 77.9161 76.7785 77.9657 76.8259C78.0153 76.8733 78.0548 76.9303 78.0817 76.9934C78.1087 77.0565 78.1226 77.1244 78.1226 77.193C78.1226 77.2616 78.1087 77.3295 78.0817 77.3926C78.0548 77.4557 78.0153 77.5127 77.9657 77.5601C77.9161 77.6075 77.8575 77.6444 77.7933 77.6685C77.729 77.6927 77.6606 77.7035 77.592 77.7005H77.584ZM71.541 77.7005H68.523C68.3923 77.6947 68.2689 77.6387 68.1785 77.5442C68.088 77.4496 68.0376 77.3238 68.0376 77.193C68.0376 77.0622 68.088 76.9364 68.1785 76.8419C68.2689 76.7473 68.3923 76.6913 68.523 76.6855H71.544C71.6775 76.6895 71.8044 76.7443 71.8988 76.8387C71.9932 76.9332 72.048 77.06 72.052 77.1935C72.0518 77.3279 71.9983 77.4567 71.9032 77.5517C71.8082 77.6467 71.6794 77.7002 71.545 77.7005H71.541ZM65.472 77.7005H62.455C62.3243 77.6947 62.2009 77.6387 62.1105 77.5442C62.02 77.4496 61.9696 77.3238 61.9696 77.193C61.9696 77.0622 62.02 76.9364 62.1105 76.8419C62.2009 76.7473 62.3243 76.6913 62.455 76.6855H65.476C65.5446 76.6825 65.613 76.6933 65.6772 76.7175C65.7415 76.7416 65.8001 76.7785 65.8497 76.8259C65.8993 76.8733 65.9388 76.9303 65.9657 76.9934C65.9927 77.0565 66.0066 77.1244 66.0066 77.193C66.0066 77.2616 65.9927 77.3295 65.9657 77.3926C65.9388 77.4557 65.8993 77.5127 65.8497 77.5601C65.8001 77.6075 65.7415 77.6444 65.6772 77.6685C65.613 77.6927 65.5446 77.7035 65.476 77.7005H65.472ZM59.404 77.7005H56.387C56.3185 77.7035 56.25 77.6927 56.1858 77.6685C56.1216 77.6444 56.0629 77.6075 56.0134 77.5601C55.9638 77.5127 55.9243 77.4557 55.8974 77.3926C55.8704 77.3295 55.8565 77.2616 55.8565 77.193C55.8565 77.1244 55.8704 77.0565 55.8974 76.9934C55.9243 76.9303 55.9638 76.8733 56.0134 76.8259C56.0629 76.7785 56.1216 76.7416 56.1858 76.7175C56.25 76.6933 56.3185 76.6825 56.387 76.6855H59.408C59.5387 76.6913 59.6622 76.7473 59.7526 76.8419C59.843 76.9364 59.8935 77.0622 59.8935 77.193C59.8935 77.3238 59.843 77.4496 59.7526 77.5442C59.6622 77.6387 59.5387 77.6947 59.408 77.7005H59.404ZM53.204 77.7005H51.131C51.004 77.6875 50.869 77.6815 50.738 77.6755C50.607 77.6695 50.47 77.6625 50.344 77.6505H50.318C50.1835 77.6366 50.0599 77.57 49.9742 77.4653C49.8886 77.3605 49.8479 77.2262 49.861 77.0915C49.875 76.9766 49.9267 76.8696 50.0082 76.7874C50.0897 76.7052 50.1963 76.6524 50.311 76.6375H50.303H50.268H50.336H50.311C50.587 76.6605 50.911 76.6855 51.211 76.6855H53.217C53.3477 76.6913 53.4712 76.7473 53.5616 76.8419C53.652 76.9364 53.7025 77.0622 53.7025 77.193C53.7025 77.3238 53.652 77.4496 53.5616 77.5442C53.4712 77.6387 53.3477 77.6947 53.217 77.7005H53.204ZM153.167 77.2695C153.059 77.2721 152.953 77.2386 152.865 77.1744C152.778 77.1101 152.715 77.0187 152.685 76.9145C152.66 76.8514 152.65 76.7837 152.653 76.7161C152.657 76.6485 152.675 76.5824 152.706 76.5223C152.737 76.4622 152.781 76.4094 152.834 76.3675C152.888 76.3257 152.949 76.2957 153.015 76.2795C153.897 76.0252 154.735 75.6402 155.503 75.1375C155.588 75.0886 155.685 75.0621 155.783 75.0605C155.825 75.0556 155.867 75.0608 155.906 75.0755C155.946 75.0903 155.981 75.1143 156.009 75.1455C156.033 75.1919 156.045 75.2433 156.045 75.2955C156.045 75.3477 156.033 75.3991 156.009 75.4455C156.079 75.557 156.102 75.6915 156.073 75.8199C156.045 75.9483 155.967 76.0603 155.856 76.1315C155.779 76.1835 155.693 76.2315 155.611 76.2865C155.529 76.3415 155.448 76.3865 155.374 76.4365H155.274C154.652 76.7741 153.996 77.0462 153.318 77.2485C153.273 77.2647 153.224 77.2702 153.176 77.2645L153.167 77.2695ZM46.535 76.2735C46.4749 76.2776 46.4147 76.2691 46.358 76.2485C45.9382 76.0931 45.5307 75.9063 45.139 75.6895H45.039L45.014 75.6645L44.988 75.6395C44.922 75.5756 44.8497 75.5186 44.772 75.4695L44.76 75.4615C44.7044 75.4198 44.6577 75.3675 44.6225 75.3076C44.5873 75.2477 44.5644 75.1814 44.555 75.1125C44.5469 75.0485 44.5516 74.9836 44.5687 74.9215C44.5859 74.8593 44.6152 74.8012 44.655 74.7505C44.7036 74.6891 44.7652 74.6393 44.8355 74.6047C44.9057 74.5701 44.9828 74.5516 45.061 74.5505H45.083C45.102 74.5505 45.121 74.5505 45.125 74.5395C45.129 74.5285 45.108 74.4875 44.891 74.3255C45.4689 74.7132 46.088 75.0355 46.737 75.2865C46.8605 75.3386 46.9588 75.4368 47.0109 75.5603C47.0631 75.6837 47.0649 75.8227 47.016 75.9475C46.9746 76.0415 46.9075 76.122 46.8224 76.1796C46.7373 76.2373 46.6377 76.2698 46.535 76.2735ZM44.858 74.3005C44.688 74.1865 44.518 74.0645 44.351 73.9385C44.6 74.1115 44.751 74.2195 44.859 74.2995L44.858 74.3005ZM157.974 74.1665C157.853 74.163 157.736 74.1182 157.644 74.0395C157.594 74.0005 157.553 73.9516 157.522 73.8959C157.492 73.8401 157.473 73.7787 157.468 73.7155C157.462 73.6458 157.47 73.5756 157.491 73.509C157.513 73.4425 157.548 73.3811 157.594 73.3285C158.204 72.6403 158.717 71.8714 159.118 71.0435C159.16 70.959 159.226 70.8879 159.306 70.8384C159.387 70.789 159.479 70.763 159.574 70.7635C159.613 70.7646 159.651 70.769 159.689 70.7765C159.727 70.784 159.765 70.7884 159.803 70.7895C159.863 70.8192 159.917 70.8605 159.961 70.9111C160.005 70.9617 160.039 71.0205 160.06 71.0842C160.082 71.1479 160.09 71.2152 160.085 71.2822C160.08 71.3492 160.062 71.4146 160.032 71.4745C159.581 72.3794 159.018 73.224 158.356 73.9885C158.311 74.0465 158.253 74.093 158.187 74.1239C158.12 74.1549 158.047 74.1695 157.974 74.1665ZM41.863 71.4745C41.7848 71.4733 41.7078 71.4547 41.6376 71.4201C41.5674 71.3855 41.5057 71.3358 41.457 71.2745C41.4537 71.2745 41.4503 71.2738 41.4472 71.2725C41.4441 71.2712 41.4413 71.2693 41.439 71.2668C41.4367 71.2644 41.4348 71.2615 41.4336 71.2584C41.4324 71.2552 41.4319 71.2519 41.432 71.2485L41.407 71.2235L41.38 71.2005V71.1245C41.3026 70.9685 41.2358 70.8075 41.18 70.6425C41.139 70.5149 41.147 70.3766 41.2025 70.2545C41.258 70.1325 41.3569 70.0355 41.48 69.9825C41.537 69.962 41.5976 69.9535 41.658 69.9575H41.729C41.7457 69.9582 41.7623 69.9559 41.778 69.9505C41.4487 69.4109 41.1705 68.8418 40.947 68.2505C41.707 69.5235 41.837 69.8265 41.806 69.9185C41.8039 69.9251 41.8002 69.9312 41.7954 69.9362C41.7905 69.9413 41.7846 69.9451 41.778 69.9475C41.928 70.1915 42.093 70.4325 42.267 70.6625C42.3084 70.7149 42.3386 70.7752 42.3558 70.8397C42.373 70.9042 42.3768 70.9715 42.367 71.0375C42.346 71.171 42.2744 71.2914 42.167 71.3735C42.0801 71.4407 41.9729 71.4763 41.863 71.4745ZM160.438 69.0375H160.362C160.232 69.0106 160.118 68.9351 160.043 68.8264C159.967 68.7178 159.936 68.5843 159.956 68.4535C160.036 67.9154 160.078 67.3725 160.083 66.8285V65.5845C160.083 65.4498 160.137 65.3206 160.232 65.2253C160.327 65.13 160.456 65.0765 160.591 65.0765C160.648 65.0754 160.705 65.0861 160.757 65.108C160.81 65.1298 160.858 65.1624 160.897 65.2035C161.044 65.4001 161.107 65.6466 161.073 65.8895V67.2355C161.069 67.6952 161.026 68.1538 160.946 68.6065C160.926 68.7269 160.864 68.8363 160.771 68.9152C160.678 68.9941 160.56 69.0375 160.438 69.0375ZM41.076 67.5905H41.025C40.8994 67.5885 40.7788 67.5412 40.6854 67.4572C40.5921 67.3731 40.5322 67.2582 40.517 67.1335C40.4957 67.0578 40.4872 66.979 40.492 66.9005V64.6705C40.492 64.5358 40.5456 64.4066 40.6408 64.3113C40.7361 64.216 40.8653 64.1625 41 64.1625C41.09 64.166 41.179 64.1828 41.264 64.2125C41.3111 64.2295 41.3602 64.2403 41.41 64.2445C41.479 64.2445 41.51 64.1975 41.51 64.0865V66.2705C41.5053 66.5331 41.514 66.7958 41.536 67.0575C41.5416 67.1229 41.5341 67.1887 41.5139 67.2511C41.4936 67.3135 41.4612 67.3712 41.4183 67.4209C41.3754 67.4705 41.3231 67.5111 41.2643 67.5403C41.2055 67.5694 41.1415 67.5865 41.076 67.5905ZM160.592 63.0705C160.457 63.0705 160.328 63.017 160.233 62.9217C160.138 62.8264 160.084 62.6972 160.084 62.5625V59.5415C160.081 59.473 160.092 59.4045 160.116 59.3403C160.14 59.2761 160.177 59.2174 160.224 59.1678C160.272 59.1182 160.329 59.0788 160.392 59.0518C160.455 59.0249 160.523 59.011 160.592 59.011C160.66 59.011 160.728 59.0249 160.791 59.0518C160.854 59.0788 160.911 59.1182 160.959 59.1678C161.006 59.2174 161.043 59.2761 161.067 59.3403C161.091 59.4045 161.102 59.473 161.099 59.5415V62.5625C161.099 62.6971 161.046 62.8261 160.951 62.9214C160.856 63.0166 160.727 63.0702 160.592 63.0705ZM41 62.1315C40.8653 62.1315 40.7361 62.078 40.6408 61.9827C40.5456 61.8874 40.492 61.7582 40.492 61.6235V58.6005C40.4978 58.4698 40.5538 58.3464 40.6484 58.2559C40.7429 58.1655 40.8687 58.115 40.9995 58.115C41.1304 58.115 41.2562 58.1655 41.3507 58.2559C41.4452 58.3464 41.5012 58.4698 41.507 58.6005V61.6215C41.5073 61.6883 41.4944 61.7545 41.469 61.8163C41.4437 61.8781 41.4064 61.9343 41.3593 61.9817C41.3122 62.029 41.2562 62.0666 41.1946 62.0924C41.1329 62.1181 41.0668 62.1314 41 62.1315ZM160.592 57.0005C160.457 57.0002 160.328 56.9465 160.233 56.8511C160.138 56.7556 160.084 56.6263 160.084 56.4915V53.4735C160.081 53.405 160.092 53.3365 160.116 53.2723C160.14 53.2081 160.177 53.1494 160.224 53.0998C160.272 53.0502 160.329 53.0108 160.392 52.9838C160.455 52.9569 160.523 52.943 160.592 52.943C160.66 52.943 160.728 52.9569 160.791 52.9838C160.854 53.0108 160.911 53.0502 160.959 53.0998C161.006 53.1494 161.043 53.2081 161.067 53.2723C161.091 53.3365 161.102 53.405 161.099 53.4735V56.4945C161.098 56.6286 161.045 56.757 160.95 56.8518C160.855 56.9465 160.726 57 160.592 57.0005ZM41 56.0635C40.8652 56.0632 40.736 56.0095 40.6408 55.9141C40.5455 55.8186 40.492 55.6893 40.492 55.5545V52.5335C40.489 52.465 40.4999 52.3965 40.524 52.3323C40.5481 52.2681 40.585 52.2094 40.6324 52.1598C40.6799 52.1102 40.7368 52.0708 40.7999 52.0438C40.863 52.0169 40.9309 52.003 40.9995 52.003C41.0681 52.003 41.136 52.0169 41.1991 52.0438C41.2622 52.0708 41.3192 52.1102 41.3666 52.1598C41.4141 52.2094 41.4509 52.2681 41.4751 52.3323C41.4992 52.3965 41.5101 52.465 41.507 52.5335V55.5545C41.507 55.6892 41.4537 55.8183 41.3587 55.9137C41.2636 56.0091 41.1347 56.063 41 56.0635ZM160.592 50.9345C160.457 50.9345 160.328 50.881 160.233 50.7857C160.138 50.6904 160.084 50.5612 160.084 50.4265V47.4005C160.081 47.332 160.092 47.2635 160.116 47.1993C160.14 47.1351 160.177 47.0764 160.224 47.0268C160.272 46.9772 160.329 46.9378 160.392 46.9108C160.455 46.8839 160.523 46.87 160.592 46.87C160.66 46.87 160.728 46.8839 160.791 46.9108C160.854 46.9378 160.911 46.9772 160.959 47.0268C161.006 47.0764 161.043 47.1351 161.067 47.1993C161.091 47.2635 161.102 47.332 161.099 47.4005V50.4225C161.1 50.4895 161.087 50.5559 161.062 50.6179C161.036 50.6799 160.999 50.7364 160.952 50.7839C160.905 50.8315 160.849 50.8693 160.787 50.8952C160.725 50.921 160.659 50.9344 160.592 50.9345ZM41 50.0195C40.8655 50.0195 40.7364 49.9661 40.6412 49.8711C40.5459 49.776 40.4923 49.6471 40.492 49.5125V46.4905C40.492 46.4238 40.5052 46.3577 40.5307 46.2961C40.5562 46.2345 40.5937 46.1785 40.6408 46.1313C40.688 46.0841 40.744 46.0467 40.8056 46.0212C40.8673 45.9956 40.9333 45.9825 41 45.9825C41.131 45.9803 41.2575 46.0296 41.3525 46.1197C41.4475 46.2098 41.5033 46.3336 41.508 46.4645V49.5105C41.5082 49.5773 41.4951 49.6435 41.4697 49.7052C41.4442 49.767 41.4068 49.8231 41.3596 49.8704C41.3124 49.9176 41.2564 49.9551 41.1947 49.9807C41.133 50.0063 41.0668 50.0195 41 50.0195ZM160.592 44.8655C160.525 44.8655 160.459 44.8524 160.398 44.8268C160.336 44.8013 160.28 44.7639 160.233 44.7167C160.186 44.6695 160.148 44.6135 160.123 44.5519C160.097 44.4903 160.084 44.4242 160.084 44.3575V41.3365C160.081 41.268 160.092 41.1995 160.116 41.1353C160.14 41.0711 160.177 41.0124 160.224 40.9628C160.272 40.9132 160.329 40.8738 160.392 40.8468C160.455 40.8199 160.523 40.806 160.592 40.806C160.66 40.806 160.728 40.8199 160.791 40.8468C160.854 40.8738 160.911 40.9132 160.959 40.9628C161.006 41.0124 161.043 41.0711 161.067 41.1353C161.091 41.1995 161.102 41.268 161.099 41.3365V44.3575C161.099 44.4921 161.046 44.6211 160.951 44.7164C160.856 44.8116 160.727 44.8652 160.592 44.8655ZM41 43.9515C40.8654 43.9512 40.7363 43.8976 40.6411 43.8024C40.5459 43.7072 40.4923 43.5781 40.492 43.4435V40.4225C40.4978 40.2918 40.5538 40.1684 40.6484 40.0779C40.7429 39.9875 40.8687 39.937 40.9995 39.937C41.1304 39.937 41.2562 39.9875 41.3507 40.0779C41.4452 40.1684 41.5012 40.2918 41.507 40.4225V43.4435C41.5068 43.578 41.4533 43.7069 41.3583 43.8021C41.2633 43.8973 41.1345 43.951 41 43.9515ZM160.592 38.8225C160.457 38.8225 160.328 38.769 160.233 38.6737C160.138 38.5784 160.084 38.4492 160.084 38.3145V35.2935C160.081 35.225 160.092 35.1565 160.116 35.0923C160.14 35.0281 160.177 34.9694 160.224 34.9198C160.272 34.8702 160.329 34.8308 160.392 34.8038C160.455 34.7769 160.523 34.763 160.592 34.763C160.66 34.763 160.728 34.7769 160.791 34.8038C160.854 34.8308 160.911 34.8702 160.959 34.9198C161.006 34.9694 161.043 35.0281 161.067 35.0923C161.091 35.1565 161.102 35.225 161.099 35.2935V38.3155C161.099 38.4499 161.045 38.5787 160.95 38.6737C160.855 38.7687 160.726 38.8222 160.592 38.8225ZM41 37.8835C40.9333 37.8835 40.8673 37.8704 40.8056 37.8448C40.744 37.8193 40.688 37.7819 40.6408 37.7347C40.5937 37.6875 40.5562 37.6315 40.5307 37.5699C40.5052 37.5083 40.492 37.4422 40.492 37.3755V34.3545C40.489 34.286 40.4999 34.2175 40.524 34.1533C40.5481 34.0891 40.585 34.0304 40.6324 33.9808C40.6799 33.9312 40.7368 33.8918 40.7999 33.8648C40.863 33.8379 40.9309 33.824 40.9995 33.824C41.0681 33.824 41.136 33.8379 41.1991 33.8648C41.2622 33.8918 41.3192 33.9312 41.3666 33.9808C41.4141 34.0304 41.4509 34.0891 41.4751 34.1533C41.4992 34.2175 41.5101 34.286 41.507 34.3545V37.3755C41.507 37.5101 41.4537 37.6391 41.3586 37.7344C41.2635 37.8296 41.1346 37.8832 41 37.8835ZM160.592 32.7545C160.457 32.7545 160.328 32.701 160.233 32.6057C160.138 32.5104 160.084 32.3812 160.084 32.2465V29.2255C160.081 29.157 160.092 29.0885 160.116 29.0243C160.14 28.9601 160.177 28.9014 160.224 28.8518C160.272 28.8022 160.329 28.7628 160.392 28.7358C160.455 28.7089 160.523 28.695 160.592 28.695C160.66 28.695 160.728 28.7089 160.791 28.7358C160.854 28.7628 160.911 28.8022 160.959 28.8518C161.006 28.9014 161.043 28.9601 161.067 29.0243C161.091 29.0885 161.102 29.157 161.099 29.2255V32.2465C161.099 32.3811 161.046 32.5101 160.951 32.6054C160.856 32.7006 160.727 32.7542 160.592 32.7545ZM41 31.8145C40.8653 31.8145 40.7361 31.761 40.6408 31.6657C40.5456 31.5704 40.492 31.4412 40.492 31.3065V28.2855C40.489 28.217 40.4999 28.1485 40.524 28.0843C40.5481 28.0201 40.585 27.9614 40.6324 27.9118C40.6799 27.8622 40.7368 27.8228 40.7999 27.7958C40.863 27.7689 40.9309 27.755 40.9995 27.755C41.0681 27.755 41.136 27.7689 41.1991 27.7958C41.2622 27.8228 41.3192 27.8622 41.3666 27.9118C41.4141 27.9614 41.4509 28.0201 41.4751 28.0843C41.4992 28.1485 41.5101 28.217 41.507 28.2855V31.3065C41.507 31.4411 41.4537 31.5701 41.3586 31.6654C41.2635 31.7606 41.1346 31.8142 41 31.8145ZM160.592 26.6865C160.457 26.6862 160.328 26.6326 160.233 26.5374C160.138 26.4422 160.084 26.3131 160.084 26.1785V23.1565C160.081 23.088 160.092 23.0195 160.116 22.9553C160.14 22.8911 160.177 22.8324 160.224 22.7828C160.272 22.7332 160.329 22.6938 160.392 22.6668C160.455 22.6399 160.523 22.626 160.592 22.626C160.66 22.626 160.728 22.6399 160.791 22.6668C160.854 22.6938 160.911 22.7332 160.959 22.7828C161.006 22.8324 161.043 22.8911 161.067 22.9553C161.091 23.0195 161.102 23.088 161.099 23.1565V26.1775C161.099 26.3121 161.046 26.4413 160.951 26.5367C160.856 26.6321 160.727 26.686 160.592 26.6865ZM41 25.7715C40.8655 25.7715 40.7364 25.7181 40.6412 25.6231C40.5459 25.528 40.4923 25.3991 40.492 25.2645V22.2435C40.492 22.1087 40.5455 21.9794 40.6408 21.8839C40.736 21.7885 40.8652 21.7348 41 21.7345C41.0675 21.7321 41.1347 21.7437 41.1975 21.7684C41.2602 21.7932 41.3172 21.8306 41.3649 21.8783C41.4126 21.9261 41.4499 21.9832 41.4745 22.046C41.4991 22.1088 41.5106 22.1761 41.508 22.2435V25.2645C41.5078 25.3991 41.4541 25.528 41.3589 25.6231C41.2637 25.7181 41.1346 25.7715 41 25.7715ZM160.592 20.6175C160.457 20.6175 160.328 20.564 160.233 20.4687C160.138 20.3734 160.084 20.2442 160.084 20.1095V17.0885C160.081 17.02 160.092 16.9515 160.116 16.8873C160.14 16.8231 160.177 16.7644 160.224 16.7148C160.272 16.6652 160.329 16.6258 160.392 16.5988C160.455 16.5719 160.523 16.558 160.592 16.558C160.66 16.558 160.728 16.5719 160.791 16.5988C160.854 16.6258 160.911 16.6652 160.959 16.7148C161.006 16.7644 161.043 16.8231 161.067 16.8873C161.091 16.9515 161.102 17.02 161.099 17.0885V20.1105C161.099 20.2449 161.045 20.3737 160.95 20.4687C160.855 20.5637 160.726 20.6172 160.592 20.6175ZM41 19.7005C40.8667 19.7005 40.7387 19.6481 40.6436 19.5546C40.5486 19.461 40.4941 19.3338 40.492 19.2005V16.1745C40.4978 16.0438 40.5538 15.9204 40.6484 15.8299C40.7429 15.7395 40.8687 15.689 40.9995 15.689C41.1304 15.689 41.2562 15.7395 41.3507 15.8299C41.4452 15.9204 41.5012 16.0438 41.507 16.1745V19.2005C41.5049 19.3337 41.4506 19.4607 41.3558 19.5542C41.261 19.6477 41.1332 19.7003 41 19.7005ZM160.592 14.5755C160.457 14.5752 160.328 14.5215 160.233 14.4261C160.138 14.3306 160.084 14.2013 160.084 14.0665V11.0455C160.081 10.977 160.092 10.9085 160.116 10.8443C160.14 10.7801 160.177 10.7214 160.224 10.6718C160.272 10.6222 160.329 10.5828 160.392 10.5558C160.455 10.5289 160.523 10.515 160.592 10.515C160.66 10.515 160.728 10.5289 160.791 10.5558C160.854 10.5828 160.911 10.6222 160.959 10.6718C161.006 10.7214 161.043 10.7801 161.067 10.8443C161.091 10.9085 161.102 10.977 161.099 11.0455V14.0665C161.099 14.2011 161.046 14.3303 160.951 14.4257C160.856 14.5211 160.727 14.575 160.592 14.5755ZM41.025 13.4065C40.8907 13.4065 40.7617 13.3533 40.6665 13.2584C40.5713 13.1636 40.5176 13.0349 40.517 12.9005V10.0805C40.5322 9.95582 40.5921 9.84085 40.6854 9.75685C40.7788 9.67284 40.8994 9.62547 41.025 9.6235C41.025 9.6235 41.052 9.6235 41.101 9.3945C41.2313 9.40768 41.3514 9.47052 41.4365 9.56996C41.5216 9.6694 41.5651 9.79781 41.558 9.9285C41.5372 10.1565 41.5288 10.3855 41.533 10.6145V12.9005C41.5322 13.0348 41.4784 13.1633 41.3833 13.2581C41.2881 13.3529 41.1593 13.4062 41.025 13.4065ZM160.234 8.6835C160.122 8.68484 160.013 8.64773 159.926 8.57837C159.838 8.50902 159.777 8.41162 159.752 8.3025C159.505 7.41835 159.138 6.57241 158.66 5.7885C158.599 5.6728 158.583 5.53843 158.616 5.41171C158.649 5.28499 158.727 5.17507 158.837 5.1035C158.911 5.05173 159 5.0251 159.091 5.0275C159.252 5.0275 159.434 5.0825 159.675 5.4845V5.5345C160.005 6.10144 160.286 6.69601 160.513 7.3115C160.538 7.3365 160.538 7.3365 160.538 7.3615V7.4905C160.597 7.63714 160.646 7.78746 160.685 7.9405L160.716 8.0485C160.734 8.10912 160.74 8.17279 160.733 8.23568C160.726 8.29857 160.706 8.3594 160.675 8.4145C160.642 8.47405 160.597 8.52626 160.543 8.56802C160.489 8.60977 160.427 8.64021 160.361 8.6575C160.322 8.67806 160.278 8.68708 160.234 8.6835ZM42.016 7.2875C41.9556 7.29153 41.895 7.28302 41.838 7.2625C41.7124 7.21014 41.6108 7.11279 41.553 6.9895C41.5228 6.92964 41.5053 6.86411 41.5019 6.79712C41.4985 6.73012 41.5091 6.66315 41.533 6.6005L41.576 6.4835C41.6381 6.3075 41.7102 6.13522 41.792 5.9675V5.6875C42.0335 5.26809 42.2962 4.86123 42.579 4.4685C42.6279 4.40713 42.6897 4.35736 42.7601 4.32277C42.8304 4.28819 42.9076 4.26965 42.986 4.2685H43.041C43.141 4.2685 43.296 4.2155 43.697 3.8345C43.8025 3.91698 43.8719 4.03719 43.8906 4.16981C43.9092 4.30243 43.8757 4.43711 43.797 4.5455C43.25 5.28285 42.8122 6.0952 42.497 6.9575C42.4587 7.05406 42.3925 7.13701 42.3068 7.19579C42.2212 7.25456 42.1199 7.28649 42.016 7.2875ZM157.292 3.7845C157.227 3.78899 157.162 3.77993 157.101 3.7579C157.039 3.73587 156.983 3.70134 156.936 3.6565C156.275 3.02229 155.522 2.49163 154.702 2.0825C154.642 2.05284 154.588 2.01152 154.544 1.96093C154.5 1.91034 154.466 1.85149 154.445 1.78779C154.423 1.72408 154.415 1.65679 154.42 1.58979C154.425 1.5228 154.443 1.45744 154.473 1.3975C154.518 1.31483 154.584 1.24543 154.664 1.19628C154.744 1.14713 154.836 1.11996 154.93 1.1175C155.007 1.1175 155.089 1.1485 156.224 1.8795L156.301 1.9175L156.377 1.9545H156.504L156.529 1.9805L156.554 2.0055L156.579 2.0305L156.605 2.0555L156.63 2.0805C156.986 2.33798 157.325 2.61788 157.645 2.9185C157.691 2.95972 157.729 3.00967 157.755 3.06546C157.782 3.12125 157.797 3.18177 157.8 3.2435C157.809 3.38427 157.763 3.52301 157.67 3.6295C157.568 3.72692 157.433 3.78228 157.292 3.7845ZM45.012 3.2255C44.9336 3.22435 44.8564 3.20581 44.7861 3.17123C44.7157 3.13664 44.6539 3.08687 44.605 3.0255C44.562 2.97397 44.5299 2.91432 44.5104 2.85009C44.491 2.78587 44.4847 2.71838 44.4918 2.65166C44.499 2.58495 44.5196 2.52035 44.5523 2.46174C44.5849 2.40313 44.6291 2.35169 44.682 2.3105C45.4729 1.67796 46.3523 1.16483 47.292 0.7875C47.35 0.765467 47.4122 0.756586 47.474 0.7615C47.5786 0.759934 47.6811 0.790826 47.7675 0.849923C47.8538 0.90902 47.9197 0.993418 47.956 1.0915C48.0045 1.21635 48.0024 1.35521 47.95 1.4785C47.9249 1.53983 47.8878 1.59555 47.8409 1.64241C47.7941 1.68928 47.7384 1.72636 47.677 1.7515C46.8305 2.09765 46.0359 2.55937 45.316 3.1235C45.2307 3.19376 45.1225 3.23008 45.012 3.2255ZM152.186 1.1935H152.086C151.476 1.07027 150.855 1.01062 150.232 1.0155H147.211C147.08 1.0097 146.957 0.953693 146.866 0.859153C146.776 0.764614 146.726 0.638829 146.726 0.508C146.726 0.377171 146.776 0.251386 146.866 0.156847C146.957 0.0623075 147.08 0.00630319 147.211 0.000500025H150.232C150.258 0.000500025 150.258 0.000500025 150.537 0.0255H150.714C151.244 0.044221 151.771 0.102719 152.292 0.2005C152.357 0.211823 152.42 0.235969 152.475 0.271538C152.531 0.307108 152.579 0.353393 152.617 0.407713C152.655 0.462033 152.681 0.523307 152.695 0.587985C152.709 0.652662 152.71 0.719457 152.698 0.7845C152.669 0.899135 152.603 1.00112 152.511 1.07494C152.418 1.14877 152.304 1.1904 152.186 1.1935ZM50.927 1.0415H50.877C50.7516 1.03911 50.6312 0.991598 50.5379 0.90767C50.4446 0.823743 50.3846 0.709015 50.369 0.5845C50.3556 0.449794 50.3962 0.315274 50.4819 0.210469C50.5676 0.105664 50.6914 0.0391401 50.826 0.0255C50.8643 0.0242713 50.9025 0.0199235 50.94 0.0125C50.9776 0.00542097 51.0158 0.00140778 51.054 0.000500025H53.237C53.4231 0.0205187 53.6015 0.0853729 53.757 0.1895C53.9591 0.29897 54.1671 0.397122 54.38 0.4835C54.38 0.550212 54.3669 0.61627 54.3414 0.677903C54.3158 0.739537 54.2784 0.795538 54.2312 0.84271C54.136 0.937979 54.0068 0.9915 53.872 0.9915H51.972C51.607 0.9905 51.242 1.0165 50.927 1.0415ZM144.187 1.0155H141.166C141.097 1.01854 141.029 1.00767 140.965 0.983539C140.901 0.959407 140.842 0.922516 140.792 0.875091C140.743 0.827665 140.703 0.770688 140.676 0.707597C140.649 0.644506 140.635 0.576609 140.635 0.508C140.635 0.439391 140.649 0.371494 140.676 0.308403C140.703 0.245312 140.743 0.188335 140.792 0.140909C140.842 0.093484 140.901 0.0565927 140.965 0.0324608C141.029 0.00832896 141.097 -0.00254324 141.166 0.000500025H144.192C144.323 0.00630319 144.446 0.0623075 144.537 0.156847C144.627 0.251386 144.677 0.377171 144.677 0.508C144.677 0.638829 144.627 0.764614 144.537 0.859153C144.446 0.953693 144.323 1.0097 144.192 1.0155H144.187ZM138.118 1.0155H135.097C134.966 1.0097 134.843 0.953693 134.752 0.859153C134.662 0.764614 134.612 0.638829 134.612 0.508C134.612 0.377171 134.662 0.251386 134.752 0.156847C134.843 0.0623075 134.966 0.00630319 135.097 0.000500025H138.118C138.187 -0.00254324 138.255 0.00832896 138.319 0.0324608C138.383 0.0565927 138.442 0.093484 138.492 0.140909C138.541 0.188335 138.581 0.245312 138.608 0.308403C138.635 0.371494 138.649 0.439391 138.649 0.508C138.649 0.576609 138.635 0.644506 138.608 0.707597C138.581 0.770688 138.541 0.827665 138.492 0.875091C138.442 0.922516 138.383 0.959407 138.319 0.983539C138.255 1.00767 138.187 1.01854 138.118 1.0155ZM132.05 1.0155H129.029C128.96 1.01854 128.892 1.00767 128.828 0.983539C128.764 0.959407 128.705 0.922516 128.655 0.875091C128.606 0.827665 128.566 0.770688 128.539 0.707597C128.512 0.644506 128.499 0.576609 128.499 0.508C128.499 0.439391 128.512 0.371494 128.539 0.308403C128.566 0.245312 128.606 0.188335 128.655 0.140909C128.705 0.093484 128.764 0.0565927 128.828 0.0324608C128.892 0.00832896 128.96 -0.00254324 129.029 0.000500025H132.05C132.181 0.00630319 132.304 0.0623075 132.395 0.156847C132.485 0.251386 132.535 0.377171 132.535 0.508C132.535 0.638829 132.485 0.764614 132.395 0.859153C132.304 0.953693 132.181 1.0097 132.05 1.0155ZM125.981 1.0155H122.961C122.892 1.01854 122.824 1.00767 122.76 0.983539C122.696 0.959407 122.637 0.922516 122.587 0.875091C122.538 0.827665 122.498 0.770688 122.471 0.707597C122.444 0.644506 122.431 0.576609 122.431 0.508C122.431 0.439391 122.444 0.371494 122.471 0.308403C122.498 0.245312 122.538 0.188335 122.587 0.140909C122.637 0.093484 122.696 0.0565927 122.76 0.0324608C122.824 0.00832896 122.892 -0.00254324 122.961 0.000500025H125.982C126.051 -0.00254324 126.119 0.00832896 126.183 0.0324608C126.247 0.0565927 126.306 0.093484 126.356 0.140909C126.405 0.188335 126.445 0.245312 126.472 0.308403C126.499 0.371494 126.513 0.439391 126.513 0.508C126.513 0.576609 126.499 0.644506 126.472 0.707597C126.445 0.770688 126.405 0.827665 126.356 0.875091C126.306 0.922516 126.247 0.959407 126.183 0.983539C126.119 1.00767 126.051 1.01854 125.982 1.0155H125.981ZM119.938 1.0155H116.918C116.849 1.01854 116.781 1.00767 116.717 0.983539C116.653 0.959407 116.594 0.922516 116.544 0.875091C116.495 0.827665 116.455 0.770688 116.428 0.707597C116.401 0.644506 116.388 0.576609 116.388 0.508C116.388 0.439391 116.401 0.371494 116.428 0.308403C116.455 0.245312 116.495 0.188335 116.544 0.140909C116.594 0.093484 116.653 0.0565927 116.717 0.0324608C116.781 0.00832896 116.849 -0.00254324 116.918 0.000500025H119.939C120.072 0.0045165 120.199 0.0593271 120.294 0.153739C120.388 0.248151 120.443 0.375042 120.447 0.5085C120.447 0.642884 120.393 0.771688 120.298 0.866711C120.203 0.961735 120.074 1.01524 119.94 1.0155H119.938ZM113.869 1.0155H110.824C110.755 1.01854 110.687 1.00767 110.623 0.983539C110.559 0.959407 110.5 0.922516 110.45 0.875091C110.401 0.827665 110.361 0.770688 110.334 0.707597C110.307 0.644506 110.294 0.576609 110.294 0.508C110.294 0.439391 110.307 0.371494 110.334 0.308403C110.361 0.245312 110.401 0.188335 110.45 0.140909C110.5 0.093484 110.559 0.0565927 110.623 0.0324608C110.687 0.00832896 110.755 -0.00254324 110.824 0.000500025H113.871C114.002 0.00630319 114.125 0.0623075 114.216 0.156847C114.306 0.251386 114.356 0.377171 114.356 0.508C114.356 0.638829 114.306 0.764614 114.216 0.859153C114.125 0.953693 114.002 1.0097 113.871 1.0155H113.869ZM107.8 1.0155H104.781C104.712 1.01854 104.644 1.00767 104.58 0.983539C104.516 0.959407 104.457 0.922516 104.407 0.875091C104.358 0.827665 104.318 0.770688 104.291 0.707597C104.264 0.644506 104.251 0.576609 104.251 0.508C104.251 0.439391 104.264 0.371494 104.291 0.308403C104.318 0.245312 104.358 0.188335 104.407 0.140909C104.457 0.093484 104.516 0.0565927 104.58 0.0324608C104.644 0.00832896 104.712 -0.00254324 104.781 0.000500025H107.802C107.871 -0.00254324 107.939 0.00832896 108.003 0.0324608C108.067 0.0565927 108.126 0.093484 108.176 0.140909C108.225 0.188335 108.265 0.245312 108.292 0.308403C108.319 0.371494 108.333 0.439391 108.333 0.508C108.333 0.576609 108.319 0.644506 108.292 0.707597C108.265 0.770688 108.225 0.827665 108.176 0.875091C108.126 0.922516 108.067 0.959407 108.003 0.983539C107.939 1.00767 107.871 1.01854 107.802 1.0155H107.8ZM101.732 1.0155H98.713C98.6445 1.01854 98.576 1.00767 98.5118 0.983539C98.4476 0.959407 98.3889 0.922516 98.3394 0.875091C98.2898 0.827665 98.2503 0.770688 98.2234 0.707597C98.1964 0.644506 98.1825 0.576609 98.1825 0.508C98.1825 0.439391 98.1964 0.371494 98.2234 0.308403C98.2503 0.245312 98.2898 0.188335 98.3394 0.140909C98.3889 0.093484 98.4476 0.0565927 98.5118 0.0324608C98.576 0.00832896 98.6445 -0.00254324 98.713 0.000500025H101.734C101.865 0.00630319 101.988 0.0623075 102.079 0.156847C102.169 0.251386 102.22 0.377171 102.22 0.508C102.22 0.638829 102.169 0.764614 102.079 0.859153C101.988 0.953693 101.865 1.0097 101.734 1.0155H101.732ZM95.688 1.0155H92.67C92.6015 1.01854 92.5331 1.00767 92.4688 0.983539C92.4046 0.959407 92.3459 0.922516 92.2964 0.875091C92.2468 0.827665 92.2073 0.770688 92.1804 0.707597C92.1534 0.644506 92.1395 0.576609 92.1395 0.508C92.1395 0.439391 92.1534 0.371494 92.1804 0.308403C92.2073 0.245312 92.2468 0.188335 92.2964 0.140909C92.3459 0.093484 92.4046 0.0565927 92.4688 0.0324608C92.5331 0.00832896 92.6015 -0.00254324 92.67 0.000500025H95.692C95.8253 0.00498876 95.952 0.0599509 96.0463 0.154264C96.1406 0.248577 96.1955 0.375197 96.2 0.5085C96.1995 0.642975 96.1458 0.771777 96.0506 0.866773C95.9554 0.961768 95.8265 1.01524 95.692 1.0155H95.688ZM89.62 1.0155H86.602C86.5335 1.01854 86.465 1.00767 86.4008 0.983539C86.3366 0.959407 86.2779 0.922516 86.2284 0.875091C86.1788 0.827665 86.1393 0.770688 86.1124 0.707597C86.0854 0.644506 86.0715 0.576609 86.0715 0.508C86.0715 0.439391 86.0854 0.371494 86.1124 0.308403C86.1393 0.245312 86.1788 0.188335 86.2284 0.140909C86.2779 0.093484 86.3366 0.0565927 86.4008 0.0324608C86.465 0.00832896 86.5335 -0.00254324 86.602 0.000500025H89.623C89.7537 0.00630319 89.8772 0.0623075 89.9676 0.156847C90.058 0.251386 90.1085 0.377171 90.1085 0.508C90.1085 0.638829 90.058 0.764614 89.9676 0.859153C89.8772 0.953693 89.7537 1.0097 89.623 1.0155H89.62ZM83.551 1.0155H80.533C80.4023 1.0097 80.2789 0.953693 80.1885 0.859153C80.098 0.764614 80.0476 0.638829 80.0476 0.508C80.0476 0.377171 80.098 0.251386 80.1885 0.156847C80.2789 0.0623075 80.4023 0.00630319 80.533 0.000500025H83.554C83.6847 0.00630319 83.8082 0.0623075 83.8986 0.156847C83.989 0.251386 84.0395 0.377171 84.0395 0.508C84.0395 0.638829 83.989 0.764614 83.8986 0.859153C83.8082 0.953693 83.6847 1.0097 83.554 1.0155H83.551ZM77.483 1.0155H74.464C74.3955 1.01854 74.327 1.00767 74.2628 0.983539C74.1986 0.959407 74.1399 0.922516 74.0904 0.875091C74.0408 0.827665 74.0013 0.770688 73.9744 0.707597C73.9474 0.644506 73.9335 0.576609 73.9335 0.508C73.9335 0.439391 73.9474 0.371494 73.9744 0.308403C74.0013 0.245312 74.0408 0.188335 74.0904 0.140909C74.1399 0.093484 74.1986 0.0565927 74.2628 0.0324608C74.327 0.00832896 74.3955 -0.00254324 74.464 0.000500025H77.486C77.6167 0.00630319 77.7402 0.0623075 77.8306 0.156847C77.921 0.251386 77.9715 0.377171 77.9715 0.508C77.9715 0.638829 77.921 0.764614 77.8306 0.859153C77.7402 0.953693 77.6167 1.0097 77.486 1.0155H77.483ZM71.44 1.0155H68.422C68.3535 1.01854 68.285 1.00767 68.2208 0.983539C68.1566 0.959407 68.0979 0.922516 68.0484 0.875091C67.9988 0.827665 67.9593 0.770688 67.9324 0.707597C67.9054 0.644506 67.8915 0.576609 67.8915 0.508C67.8915 0.439391 67.9054 0.371494 67.9324 0.308403C67.9593 0.245312 67.9988 0.188335 68.0484 0.140909C68.0979 0.093484 68.1566 0.0565927 68.2208 0.0324608C68.285 0.00832896 68.3535 -0.00254324 68.422 0.000500025H71.443C71.575 0.00897781 71.6993 0.0652209 71.7928 0.158715C71.8863 0.252208 71.9426 0.376552 71.951 0.5085C71.9508 0.643057 71.8971 0.772012 71.8019 0.867064C71.7067 0.962116 71.5776 1.0155 71.443 1.0155H71.44ZM65.372 1.0155H62.328C62.2595 1.01854 62.191 1.00767 62.1268 0.983539C62.0626 0.959407 62.0039 0.922516 61.9543 0.875091C61.9048 0.827665 61.8653 0.770688 61.8384 0.707597C61.8114 0.644506 61.7975 0.576609 61.7975 0.508C61.7975 0.439391 61.8114 0.371494 61.8384 0.308403C61.8653 0.245312 61.9048 0.188335 61.9543 0.140909C62.0039 0.093484 62.0626 0.0565927 62.1268 0.0324608C62.191 0.00832896 62.2595 -0.00254324 62.328 0.000500025H65.375C65.4436 -0.00254324 65.512 0.00832896 65.5763 0.0324608C65.6405 0.0565927 65.6991 0.093484 65.7487 0.140909C65.7983 0.188335 65.8378 0.245312 65.8647 0.308403C65.8917 0.371494 65.9056 0.439391 65.9056 0.508C65.9056 0.576609 65.8917 0.644506 65.8647 0.707597C65.8378 0.770688 65.7983 0.827665 65.7487 0.875091C65.6991 0.922516 65.6405 0.959407 65.5763 0.983539C65.512 1.00767 65.4436 1.01854 65.375 1.0155H65.372ZM59.303 1.0155H56.285C56.2165 1.01854 56.148 1.00767 56.0838 0.983539C56.0196 0.959407 55.9609 0.922516 55.9114 0.875091C55.8618 0.827665 55.8223 0.770688 55.7954 0.707597C55.7684 0.644506 55.7545 0.576609 55.7545 0.508C55.7545 0.439391 55.7684 0.371494 55.7954 0.308403C55.8223 0.245312 55.8618 0.188335 55.9114 0.140909C55.9609 0.093484 56.0196 0.0565927 56.0838 0.0324608C56.148 0.00832896 56.2165 -0.00254324 56.285 0.000500025H59.306C59.4367 0.00630319 59.5602 0.0623075 59.6506 0.156847C59.741 0.251386 59.7915 0.377171 59.7915 0.508C59.7915 0.638829 59.741 0.764614 59.6506 0.859153C59.5602 0.953693 59.4367 1.0097 59.306 1.0155H59.303Z" fill="#EAEAFF"/>
<path d="M161.097 11.9844V12.4164H40.4922V11.9844H161.097Z" fill="white"/>
<path d="M52.0451 66.7771C51.359 66.7745 50.7017 66.5008 50.2166 66.0156C49.7314 65.5305 49.4577 64.8732 49.4551 64.1871V26.1271C49.4577 25.441 49.7314 24.7838 50.2166 24.2986C50.7017 23.8135 51.359 23.5397 52.0451 23.5371H53.4161C54.1022 23.5397 54.7594 23.8135 55.2446 24.2986C55.7297 24.7838 56.0034 25.441 56.0061 26.1271V64.1621C56.0085 64.8521 55.7372 65.5148 55.2516 66.005C54.7661 66.4952 54.106 66.7729 53.4161 66.7771H52.0451Z" fill="#EAEAFF"/>
<path d="M64.0549 66.7773C63.4902 66.7739 62.9497 66.5481 62.5504 66.1488C62.1511 65.7495 61.9253 65.209 61.9219 64.6443V39.7873C61.9253 39.2226 62.1511 38.6821 62.5504 38.2828C62.9497 37.8835 63.4902 37.6577 64.0549 37.6543H66.3399C66.9045 37.6577 67.4451 37.8835 67.8444 38.2828C68.2436 38.6821 68.4695 39.2226 68.4729 39.7873V64.6443C68.4654 65.2077 68.2382 65.7459 67.8398 66.1443C67.4414 66.5427 66.9032 66.7698 66.3399 66.7773H64.0549Z" fill="#EAEAFF"/>
<path d="M76.9533 66.7771C76.2672 66.7745 75.6099 66.5008 75.1248 66.0156C74.6396 65.5305 74.3659 64.8732 74.3633 64.1871V26.1271C74.3659 25.441 74.6396 24.7838 75.1248 24.2986C75.6099 23.8135 76.2672 23.5397 76.9533 23.5371H78.3243C79.0104 23.5397 79.6676 23.8135 80.1528 24.2986C80.6379 24.7838 80.9116 25.441 80.9143 26.1271V64.1621C80.9167 64.8521 80.6454 65.5148 80.1598 66.005C79.6743 66.4952 79.0142 66.7729 78.3243 66.7771H76.9533Z" fill="#EAEAFF"/>
<path d="M89.9269 66.7805C89.334 66.7794 88.7658 66.5432 88.347 66.1236C87.9281 65.704 87.6929 65.1353 87.6929 64.5425V36.7145C87.6939 36.1223 87.9296 35.5547 88.3484 35.136C88.7671 34.7172 89.3347 34.4815 89.9269 34.4805H91.9839C92.576 34.4815 93.1437 34.7172 93.5624 35.136C93.9811 35.5547 94.2168 36.1223 94.2179 36.7145V64.5425C94.2201 64.8367 94.1639 65.1284 94.0525 65.4007C93.9411 65.6729 93.7767 65.9204 93.5688 66.1286C93.361 66.3368 93.1138 66.5016 92.8418 66.6136C92.5697 66.7255 92.2781 66.7822 91.9839 66.7805H89.9269Z" fill="#EAEAFF"/>
<path d="M101.989 66.7772C101.499 66.7746 101.029 66.5785 100.682 66.2316C100.334 65.8847 100.138 65.4149 100.135 64.9242V46.8462C100.138 46.3553 100.334 45.8852 100.681 45.5381C101.028 45.191 101.498 44.9948 101.989 44.9922H104.858C105.349 44.9951 105.819 45.1914 106.166 45.5385C106.513 45.8856 106.709 46.3555 106.711 46.8462V64.9242C106.704 65.4137 106.507 65.8813 106.161 66.2274C105.814 66.5736 105.347 66.7712 104.857 66.7782L101.989 66.7772Z" fill="#EAEAFF"/>
<path d="M114.835 66.7805C114.242 66.7794 113.674 66.5432 113.255 66.1236C112.836 65.704 112.601 65.1353 112.601 64.5425V36.7145C112.602 36.1223 112.838 35.5547 113.257 35.136C113.675 34.7172 114.243 34.4815 114.835 34.4805H116.892C117.484 34.4815 118.052 34.7172 118.471 35.136C118.889 35.5547 119.125 36.1223 119.126 36.7145V64.5425C119.128 64.8367 119.072 65.1284 118.961 65.4007C118.849 65.6729 118.685 65.9204 118.477 66.1286C118.269 66.3368 118.022 66.5016 117.75 66.6136C117.478 66.7255 117.186 66.7822 116.892 66.7805H114.835Z" fill="#EAEAFF"/>
<path d="M51.4612 0.000405432C48.584 -0.0244215 45.8143 1.09186 43.7584 3.10482C41.7025 5.11777 40.5281 7.86337 40.4922 10.7404V12.1874H161.097V10.7404C161.061 7.86354 159.887 5.1181 157.831 3.10517C155.776 1.09224 153.006 -0.0241555 150.129 0.000405432H51.4612Z" fill="#EAEAFF"/>
<path d="M134.538 7.69432C134.107 7.70074 133.691 7.53582 133.382 7.23581C133.073 6.93579 132.895 6.52523 132.888 6.09432C132.895 5.66341 133.073 5.25285 133.382 4.95283C133.691 4.65282 134.107 4.48791 134.538 4.49432C134.969 4.48791 135.385 4.65282 135.694 4.95283C136.004 5.25285 136.181 5.66341 136.188 6.09432C136.181 6.52523 136.004 6.93579 135.694 7.23581C135.385 7.53582 134.969 7.70074 134.538 7.69432Z" fill="#FF8870"/>
<path d="M141.978 7.69432C141.547 7.70074 141.131 7.53582 140.822 7.23581C140.513 6.93579 140.335 6.52523 140.328 6.09432C140.335 5.66341 140.513 5.25285 140.822 4.95283C141.131 4.65282 141.547 4.48791 141.978 4.49432C142.409 4.48791 142.825 4.65282 143.134 4.95283C143.444 5.25285 143.621 5.66341 143.628 6.09432C143.621 6.52523 143.444 6.93579 143.134 7.23581C142.825 7.53582 142.409 7.70074 141.978 7.69432Z" fill="#FFD301"/>
<path d="M149.417 7.69432C148.986 7.70074 148.57 7.53582 148.261 7.23581C147.952 6.93579 147.774 6.52523 147.767 6.09432C147.774 5.66341 147.952 5.25285 148.261 4.95283C148.57 4.65282 148.986 4.48791 149.417 4.49432C149.848 4.48791 150.264 4.65282 150.573 4.95283C150.883 5.25285 151.06 5.66341 151.067 6.09432C151.06 6.52523 150.883 6.93579 150.573 7.23581C150.264 7.53582 149.848 7.70074 149.417 7.69432Z" fill="#54CDA2"/>
<path d="M156.883 93.6914C155.173 93.6891 153.534 93.0088 152.326 91.7999C151.117 90.591 150.436 88.9521 150.434 87.2424V48.5974C150.436 46.8878 151.117 45.2488 152.326 44.0399C153.534 42.831 155.173 42.1508 156.883 42.1484H208.223C209.933 42.1508 211.572 42.831 212.781 44.0399C213.989 45.2488 214.67 46.8878 214.672 48.5974V87.2424C214.67 88.9521 213.989 90.591 212.781 91.7999C211.572 93.0088 209.933 93.6891 208.223 93.6914H156.883Z" fill="#EAEAFF"/>
<path d="M214.672 55.123V55.58H150.434V55.123H214.672Z" fill="white"/>
<path d="M189.658 50.7805C189.283 50.7805 188.915 50.669 188.603 50.4603C188.29 50.2515 188.047 49.9547 187.903 49.6076C187.759 49.2604 187.721 48.8784 187.795 48.5098C187.868 48.1412 188.049 47.8027 188.315 47.537C188.581 47.2712 188.919 47.0903 189.288 47.017C189.656 46.9437 190.038 46.9813 190.385 47.1251C190.733 47.2689 191.029 47.5124 191.238 47.8249C191.447 48.1373 191.558 48.5047 191.558 48.8805C191.558 49.3844 191.358 49.8677 191.002 50.224C190.645 50.5803 190.162 50.7805 189.658 50.7805Z" fill="#FF8870"/>
<path d="M198.291 50.7805C197.915 50.7805 197.548 50.669 197.236 50.4603C196.923 50.2515 196.68 49.9547 196.536 49.6076C196.392 49.2604 196.354 48.8784 196.428 48.5098C196.501 48.1412 196.682 47.8027 196.948 47.537C197.213 47.2712 197.552 47.0903 197.92 47.017C198.289 46.9437 198.671 46.9813 199.018 47.1251C199.365 47.2689 199.662 47.5124 199.871 47.8249C200.08 48.1373 200.191 48.5047 200.191 48.8805C200.191 49.3844 199.991 49.8677 199.635 50.224C199.278 50.5803 198.795 50.7805 198.291 50.7805Z" fill="#FFD301"/>
<path d="M206.924 50.7805C206.548 50.7805 206.181 50.669 205.868 50.4603C205.556 50.2515 205.312 49.9547 205.169 49.6076C205.025 49.2604 204.987 48.8784 205.06 48.5098C205.134 48.1412 205.315 47.8027 205.58 47.537C205.846 47.2712 206.185 47.0903 206.553 47.017C206.922 46.9437 207.304 46.9813 207.651 47.1251C207.998 47.2689 208.295 47.5124 208.504 47.8249C208.712 48.1373 208.824 48.5047 208.824 48.8805C208.824 49.3844 208.624 49.8677 208.267 50.224C207.911 50.5803 207.428 50.7805 206.924 50.7805Z" fill="#54CDA2"/>
<path d="M186.261 73.3799C186.11 73.3791 185.962 73.3381 185.833 73.261C185.703 73.1839 185.597 73.0736 185.524 72.9416C185.452 72.8095 185.416 72.6604 185.421 72.5097C185.425 72.3591 185.47 72.2124 185.55 72.0849L190.754 63.9349C190.786 63.8887 190.808 63.8366 190.818 63.7816C190.829 63.7267 190.829 63.6701 190.817 63.6154C190.805 63.5607 190.782 63.509 190.749 63.4635C190.717 63.418 190.675 63.3797 190.627 63.3509C188.957 62.3719 187.07 61.8236 185.135 61.7553C183.2 61.687 181.279 62.1008 179.544 62.9595C177.809 63.8182 176.315 65.0949 175.196 66.6745C174.077 68.2542 173.368 70.0873 173.134 72.0089C172.951 73.5707 173.084 75.1534 173.527 76.6623C173.97 78.1712 174.713 79.5752 175.711 80.7902C176.709 82.0053 177.942 83.0063 179.337 83.7334C180.731 84.4605 182.258 84.8987 183.826 85.0218C185.393 85.1449 186.97 84.9503 188.46 84.4497C189.951 83.9491 191.325 83.1528 192.501 82.1085C193.677 81.0641 194.63 79.7932 195.302 78.3719C195.975 76.9506 196.354 75.4081 196.417 73.8369C196.413 73.7169 196.364 73.6028 196.279 73.5179C196.194 73.433 196.08 73.3836 195.96 73.3799H186.261Z" fill="white"/>
<path d="M39.7049 150.645C49.4039 133.633 59.9419 122.587 66.4159 117.712C70.5783 114.64 74.9857 111.914 79.5939 109.562L73.9829 159.278L58.3419 208.739L26.7559 208.941C26.7559 208.941 30.0059 167.657 39.7049 150.645Z" fill="#F9D2DD"/>
<path d="M70.199 171.211L73.98 159.278L77.587 127.463L73.246 113.143C73.1494 113.196 73.0562 113.256 72.967 113.321C73.018 117.536 72.535 131.628 64.842 143.637C58.087 154.174 43.996 156.079 37.064 156.332C36.864 156.789 36.658 157.271 36.48 157.732L70.199 171.211Z" fill="#F9ACC0"/>
<path d="M60.7797 163.873C60.7797 163.873 68.5997 159.273 72.9167 139.041C75.4047 127.361 72.9167 112.863 72.9167 112.863C72.9167 112.863 89.3687 103.139 106.381 103.951C116.431 104.397 126.393 106.026 136.063 108.803C136.063 108.803 134.971 117.157 134.971 134.448C134.971 151.739 142.537 170.348 142.537 170.348L141.318 208.942H55.3457L60.7797 163.873Z" fill="#3D5CFF"/>
<path d="M98.9406 153.359L95.3096 189.795L141.623 177.531L115.823 173.595L98.9406 153.359Z" fill="#224BF4"/>
<path d="M79.9236 109.611V206.781H79.3906V109.611H79.9236Z" fill="white"/>
<path d="M91.6536 105.549V206.781H91.1206V105.549H91.6536Z" fill="white"/>
<path d="M103.409 109.611V206.781H102.876V109.611H103.409Z" fill="white"/>
<path d="M115.14 109.611V206.781H114.607V109.611H115.14Z" fill="white"/>
<path d="M126.87 106.641V206.782H126.337V106.641H126.87Z" fill="white"/>
<path d="M135.047 6.11976C134.326 6.75872 133.766 7.55914 133.413 8.45571C133.06 9.35229 132.924 10.3196 133.016 11.2788C131.274 10.6733 129.409 10.5091 127.588 10.8007C125.767 11.0923 124.046 11.8306 122.58 12.9498C118.721 15.8698 119.18 20.3888 119.66 22.5218C114.531 22.1158 109.123 24.0218 107.066 28.1078C105.845 30.7888 105.279 33.7219 105.416 36.6648C92.264 35.6998 81.216 44.0028 79.568 55.9648C77.92 67.9268 84.037 74.7788 84.037 74.7788L108.945 82.1168C108.945 82.1168 119.761 82.8528 125.398 77.7238C131.035 72.5948 134.564 60.6108 130.324 50.8348C129 48.0451 127.055 45.5957 124.637 43.6748C126.202 42.1096 127.637 40.4197 128.928 38.6218C129.826 37.2872 130.401 35.7621 130.608 34.1669C130.815 32.5718 130.648 30.9503 130.121 29.4308C131.935 29.1538 133.683 28.5436 135.275 27.6308C138.931 25.6508 139.875 21.5118 138.982 17.9308C140.183 17.9653 141.384 17.8646 142.562 17.6308C146.091 16.8688 147.513 12.4768 145.152 8.08376C142.791 3.69076 137.865 3.91076 135.047 6.11976Z" fill="#1F1F39"/>
<path d="M81.5487 68.3527C77.2327 70.2317 77.5117 78.6107 83.7067 81.3017C89.9017 83.9927 93.4317 81.8347 93.4317 81.8347L88.5567 68.3527C88.5567 68.3527 85.8647 66.4737 81.5487 68.3527Z" fill="#F9ACC0"/>
<path d="M88.8856 80.8693L86.8036 76.5533C84.7986 72.3893 82.0816 71.0173 82.0556 71.0173C81.9954 70.99 81.9483 70.9401 81.9245 70.8783C81.9008 70.8166 81.9022 70.748 81.9286 70.6873C81.9559 70.6268 82.006 70.5796 82.068 70.5558C82.13 70.532 82.1988 70.5336 82.2596 70.5603C82.3866 70.6113 85.1796 71.9823 87.2596 76.3493L89.3416 80.6653C89.368 80.726 89.3695 80.7946 89.3457 80.8563C89.322 80.9181 89.2749 80.968 89.2146 80.9953C89.1896 80.9953 89.1386 81.0203 89.1146 81.0203C89.0657 81.021 89.0177 81.007 88.9769 80.9801C88.9361 80.9531 88.9043 80.9146 88.8856 80.8693Z" fill="#1F1F39"/>
<path d="M84.5426 66.0676C84.6696 68.7336 85.3046 78.3566 88.3006 83.4346C90.1735 86.7023 93.0367 89.2899 96.4766 90.8236C96.612 90.8774 96.7269 90.9728 96.8046 91.0961C96.8822 91.2194 96.9186 91.3642 96.9086 91.5096C96.8326 93.4096 96.5276 100.117 95.8426 102.86C95.2336 105.323 94.6236 107.303 94.3426 108.116C94.3019 108.243 94.297 108.379 94.3284 108.509C94.3598 108.638 94.4263 108.757 94.5206 108.852C95.6126 109.944 99.8016 112.026 106.632 112.026C113.386 112.026 117.042 110.35 118.337 109.588C118.465 109.51 118.567 109.396 118.63 109.261C118.693 109.125 118.715 108.974 118.692 108.826C118.311 106.846 116.892 99.2786 116.892 95.5466C116.892 91.9916 117.247 86.9896 117.374 85.3146C117.385 85.1559 117.449 85.0053 117.554 84.8861C117.66 84.7668 117.801 84.6855 117.958 84.6546C120.167 84.2486 128.419 82.2426 127.937 74.7546C127.48 67.2386 120.675 67.8996 118.923 68.2036C118.795 68.2264 118.675 68.2831 118.577 68.3679C118.479 68.4527 118.405 68.5625 118.364 68.6856C118.064 69.5486 117.298 71.7326 116.891 73.4336C116.854 73.5975 116.76 73.743 116.626 73.8443C116.492 73.9456 116.326 73.9962 116.158 73.9871C115.991 73.978 115.832 73.9098 115.709 73.7946C115.587 73.6793 115.51 73.5245 115.491 73.3576C115.364 72.4916 115.297 71.6179 115.291 70.7426C115.264 69.8874 115.358 69.0328 115.57 68.2036C115.593 68.1119 115.597 68.0165 115.582 67.9231C115.568 67.8297 115.535 67.7401 115.485 67.6597C115.435 67.5792 115.37 67.5096 115.293 67.4548C115.216 67.4 115.129 67.3612 115.037 67.3406C113.107 66.8836 108.156 65.3096 105.592 61.0186C104.482 59.2404 103.563 57.3499 102.851 55.3786C102.805 55.2437 102.721 55.1254 102.608 55.0389C102.495 54.9525 102.358 54.9019 102.216 54.8938C102.074 54.8856 101.933 54.9202 101.811 54.993C101.689 55.0659 101.591 55.1738 101.531 55.3026C100.067 58.2269 97.7103 60.6088 94.8016 62.1026C91.8265 63.7768 88.5613 64.8724 85.1786 65.3316C84.9978 65.3479 84.8305 65.4338 84.7119 65.5711C84.5932 65.7084 84.5325 65.8864 84.5426 66.0676Z" fill="#F9D2DD"/>
<path d="M159.041 131.752C165.241 145.514 167.978 174.51 167.395 184.92C166.836 194.645 163.333 205.69 151.729 208.127C140.151 210.564 98.3066 208.124 98.3066 208.124V180.349L139.059 177.658L135.834 159.047C135.834 159.047 131.797 140.689 133.143 126.674C134.463 112.607 135.555 108.824 135.555 108.824C135.555 108.824 150.459 112.709 159.041 131.752Z" fill="#F9D2DD"/>
<path d="M104.426 65.6349C104.898 65.4041 105.425 65.3076 105.949 65.3559C106.209 65.3788 106.466 65.4388 106.71 65.5339C106.963 65.6097 107.197 65.7397 107.396 65.9149C107.603 66.0696 107.767 66.2739 107.875 66.5089C107.982 66.744 108.028 67.0022 108.01 67.2599C107.949 67.0409 107.846 66.8361 107.706 66.6573C107.565 66.4786 107.391 66.3296 107.193 66.2189C106.796 66.0211 106.365 65.9007 105.924 65.8639C105.478 65.8249 105.029 65.8766 104.604 66.0159C104.161 66.1679 103.754 66.41 103.41 66.7269C103.613 66.2568 103.971 65.8711 104.426 65.6349Z" fill="#1F1F39"/>
<path d="M89.9277 65.7629C90.3216 65.4093 90.821 65.1953 91.3487 65.1539C91.6135 65.1287 91.8807 65.1545 92.1357 65.2299C92.3937 65.3246 92.634 65.4618 92.8467 65.6359C93.0331 65.812 93.1811 66.0247 93.2815 66.2606C93.382 66.4964 93.4328 66.7505 93.4307 67.0069C93.2529 66.5834 92.9637 66.2161 92.5937 65.9439C92.417 65.8221 92.2189 65.7349 92.0097 65.6869C91.9097 65.6869 91.8097 65.6359 91.7097 65.6359H91.4097C90.9685 65.6659 90.5437 65.8152 90.1807 66.0679C89.7744 66.3177 89.4138 66.6353 89.1147 67.0069C89.2656 66.5251 89.547 66.0945 89.9277 65.7629Z" fill="#1F1F39"/>
<path d="M97.7986 70.1543C97.6716 70.5093 97.5446 70.8403 97.4436 71.1953C97.3426 71.5503 97.2436 71.8813 97.1646 72.2363C97.0783 72.5587 97.0525 72.8944 97.0886 73.2263C97.1103 73.3752 97.1718 73.5154 97.2666 73.6323C97.303 73.7024 97.355 73.7633 97.4186 73.8103L97.4946 73.8863L97.5946 73.9623C97.8724 74.1678 98.1936 74.3067 98.5336 74.3683C98.8934 74.4455 99.2584 74.4963 99.6256 74.5203C99.2618 74.6174 98.8839 74.6513 98.5086 74.6203C98.116 74.5969 97.7339 74.484 97.3916 74.2903C97.2079 74.1841 97.0479 74.0416 96.9213 73.8713C96.7947 73.7011 96.7043 73.5067 96.6556 73.3003C96.5956 72.9037 96.6129 72.4993 96.7066 72.1093C96.8684 71.3673 97.1245 70.6492 97.4686 69.9723C97.7691 69.3045 98.1349 68.6681 98.5606 68.0723L97.7986 70.1543Z" fill="#1F1F39"/>
<path d="M91.8068 73.5311C91.2693 73.4876 90.7707 73.2341 90.419 72.8254C90.0672 72.4168 89.8907 71.886 89.9278 71.3481C89.8905 70.81 90.0668 70.2789 90.4186 69.8701C90.7704 69.4612 91.2692 69.2075 91.8068 69.1641C92.3444 69.2075 92.8432 69.4612 93.1949 69.8701C93.5467 70.2789 93.723 70.81 93.6858 71.3481C93.7228 71.886 93.5463 72.4168 93.1945 72.8254C92.8428 73.2341 92.3442 73.4876 91.8068 73.5311Z" fill="#1F1F39"/>
<path d="M105.289 73.5311C104.751 73.4876 104.253 73.2341 103.901 72.8254C103.549 72.4168 103.373 71.886 103.41 71.3481C103.372 70.81 103.549 70.2789 103.901 69.8701C104.252 69.4612 104.751 69.2075 105.289 69.1641C105.826 69.2075 106.325 69.4612 106.677 69.8701C107.029 70.2789 107.205 70.81 107.168 71.3481C107.205 71.886 107.028 72.4168 106.676 72.8254C106.325 73.2341 105.826 73.4876 105.289 73.5311Z" fill="#1F1F39"/>
<path d="M108.183 179.562V208.127C108.183 208.127 117.222 208.66 128.064 208.965L118.314 178.902L108.183 179.562Z" fill="#F9ACC0"/>
<path d="M102.064 81.6053C101.526 81.5618 101.028 81.3083 100.676 80.8996C100.324 80.491 100.148 79.9602 100.185 79.4223C100.147 78.8842 100.324 78.3531 100.675 77.9443C101.027 77.5354 101.526 77.2817 102.064 77.2383C102.601 77.2817 103.1 77.5354 103.452 77.9443C103.804 78.3531 103.98 78.8842 103.943 79.4223C103.98 79.9602 103.803 80.491 103.451 80.8996C103.1 81.3083 102.601 81.5618 102.064 81.6053Z" fill="#F95368"/>
<path d="M26.2228 208.685C25.1419 208.609 24.1049 208.228 23.2327 207.585C22.3605 206.942 21.6891 206.064 21.2968 205.054L11.0138 148.662C10.2768 146.681 11.3178 145.031 13.3238 145.031H104.07C105.151 145.107 106.188 145.489 107.06 146.132C107.932 146.775 108.603 147.652 108.996 148.662L119.277 205.054C120.013 207.06 118.977 208.685 116.966 208.685H26.2228Z" fill="#EAEAFF"/>
<path d="M64 181C62.8133 181 61.6533 180.648 60.6666 179.989C59.6799 179.33 58.9109 178.392 58.4567 177.296C58.0026 176.2 57.8838 174.993 58.1153 173.829C58.3468 172.666 58.9182 171.596 59.7574 170.757C60.5965 169.918 61.6656 169.347 62.8295 169.115C63.9933 168.884 65.1997 169.003 66.2961 169.457C67.3925 169.911 68.3295 170.68 68.9888 171.667C69.6481 172.653 70 173.813 70 175C70 176.591 69.3679 178.117 68.2426 179.243C67.1174 180.368 65.5913 181 64 181Z" fill="white"/>
<g opacity="0.635">
<path opacity="0.635" d="M109.986 81.3787C106.873 81.3787 104.349 79.8327 104.349 77.9257C104.349 76.0187 106.873 74.4727 109.986 74.4727C113.099 74.4727 115.623 76.0187 115.623 77.9257C115.623 79.8327 113.099 81.3787 109.986 81.3787Z" fill="#F9ACC0"/>
<path opacity="0.635" d="M90.0037 81.3806C86.8907 81.3806 84.3667 79.8346 84.3667 77.9276C84.3667 76.0206 86.8907 74.4746 90.0037 74.4746C93.1167 74.4746 95.6407 76.0206 95.6407 77.9276C95.6407 79.8346 93.1167 81.3806 90.0037 81.3806Z" fill="#F9ACC0"/>
</g>
<path d="M103.359 92.143C101.147 91.9464 98.9507 91.6071 96.7829 91.127C96.8631 91.257 96.9069 91.4062 96.9099 91.559C96.8589 93.158 96.6299 98.084 96.1479 101.258C98.5859 100.75 103.156 99.527 105.822 97.246C107.852 95.5805 109.669 93.6703 111.23 91.559C108.641 92.0827 105.997 92.2789 103.359 92.143Z" fill="#F9ACC0"/>
<path d="M96.8336 91.2544C96.8019 91.2431 96.7731 91.2252 96.7491 91.2017C96.725 91.1783 96.7063 91.1499 96.6943 91.1186C96.6822 91.0872 96.6771 91.0537 96.6792 91.0201C96.6813 90.9866 96.6907 90.954 96.7066 90.9244C96.7178 90.8928 96.7358 90.8639 96.7592 90.8399C96.7827 90.8158 96.8111 90.7971 96.8424 90.7851C96.8737 90.773 96.9073 90.7679 96.9408 90.77C96.9743 90.7721 97.007 90.7815 97.0366 90.7974C99.5085 91.6814 102.136 92.0457 104.756 91.8674C107.198 91.7619 109.624 91.4034 111.993 90.7974C112.024 90.7859 112.057 90.7815 112.091 90.7846C112.124 90.7877 112.156 90.7981 112.185 90.8151C112.214 90.8322 112.238 90.8554 112.257 90.8831C112.275 90.9108 112.288 90.9424 112.293 90.9754C112.304 91.0068 112.308 91.0403 112.305 91.0735C112.302 91.1068 112.292 91.139 112.275 91.1677C112.258 91.1964 112.235 91.221 112.207 91.2396C112.179 91.2582 112.148 91.2705 112.115 91.2754C109.711 91.8842 107.253 92.2501 104.777 92.3674C104.345 92.3674 103.939 92.3924 103.533 92.3924C101.249 92.4215 98.9793 92.036 96.8336 91.2544Z" fill="#1F1F39"/>
<path d="M117.527 79.9067C116.83 81.7151 116.786 83.7097 117.4 85.5477V85.3957C117.411 85.2369 117.475 85.0863 117.58 84.9671C117.686 84.8478 117.828 84.7665 117.984 84.7357C118.783 84.5829 119.572 84.3795 120.345 84.1267C119.812 82.1507 119.657 80.0921 119.888 78.0587C120.157 76.2449 120.715 74.4858 121.539 72.8477C121.539 72.8477 119.203 74.7017 117.527 79.9067Z" fill="#F9ACC0"/>
<path d="M116.918 82.1145C117.049 80.0892 117.611 78.1153 118.568 76.3255C119.48 74.3951 120.925 72.7656 122.732 71.6285C122.762 71.6112 122.795 71.6001 122.829 71.5958C122.863 71.5915 122.898 71.5941 122.931 71.6034C122.964 71.6127 122.995 71.6286 123.021 71.6501C123.048 71.6715 123.071 71.6982 123.087 71.7285C123.104 71.7582 123.115 71.7911 123.12 71.8252C123.124 71.8594 123.121 71.894 123.112 71.9271C123.103 71.9602 123.087 71.9911 123.065 72.018C123.044 72.0448 123.017 72.0671 122.987 72.0835C121.289 73.1839 119.927 74.7309 119.051 76.5545C118.135 78.276 117.59 80.1704 117.451 82.1154C117.437 82.1817 117.402 82.2418 117.352 82.2874C117.302 82.333 117.239 82.3617 117.172 82.3695C117.139 82.3695 117.105 82.3628 117.075 82.35C117.044 82.3372 117.016 82.3184 116.992 82.2947C116.968 82.271 116.95 82.2429 116.937 82.212C116.924 82.181 116.918 82.1479 116.918 82.1145Z" fill="#1F1F39"/>
<path d="M143.096 112.506C140.765 110.919 138.217 109.679 135.53 108.824C135.53 108.824 134.438 112.607 133.092 126.624C132.203 135.789 133.625 146.808 134.713 153.334C134.745 146.096 135.469 138.878 136.875 131.777C138.957 121.469 141.446 115.578 143.096 112.506Z" fill="#F9ACC0"/>
<path d="M150.916 176.567L137.687 169.559L139.007 177.43L150.916 176.567Z" fill="#F9ACC0"/>
<path d="M138.801 177.557C138.776 177.43 138.901 177.303 139.03 177.278L151.068 176.132C151.135 176.126 151.202 176.146 151.254 176.189C151.307 176.232 151.34 176.294 151.347 176.361C151.372 176.488 151.247 176.615 151.118 176.64L139.058 177.786C138.995 177.784 138.935 177.76 138.888 177.718C138.841 177.676 138.81 177.619 138.801 177.557Z" fill="#1F1F39"/>
<path d="M0.237 209.691C0.105 209.691 0 209.469 0 209.191C0 208.913 0.105 208.691 0.237 208.691H189.763C189.894 208.691 190 208.913 190 209.191C190 209.469 189.895 209.691 189.763 209.691H0.237Z" fill="#1F1F39"/>
</svg>
