<svg width="24" height="25" viewBox="0 0 24 25" fill="none" xmlns="http://www.w3.org/2000/svg">
<path fill-rule="evenodd" clip-rule="evenodd" d="M16.3661 6.62334V11.2953H20.3527C20.5895 11.2899 20.8096 11.4168 20.9234 11.6245C21.0372 11.8322 21.0259 12.086 20.894 12.2827L15.8259 19.7088C15.6661 19.9424 15.3738 20.0464 15.1024 19.9661C14.831 19.8858 14.6423 19.6396 14.6354 19.3566V14.6817H10.6507C10.4139 14.6871 10.1939 14.5601 10.08 14.3525C9.96619 14.1448 9.97754 13.891 10.1095 13.6943L15.1756 6.27119C15.3354 6.03754 15.6276 5.93361 15.899 6.0139C16.1704 6.09419 16.3591 6.34037 16.3661 6.62334V6.62334Z" stroke="#8031FF" stroke-width="1.5" stroke-linecap="round" stroke-linejoin="round"/>
<path d="M8.99877 18.9925H3.74658" stroke="#B891F8" stroke-width="1.5" stroke-linecap="round" stroke-linejoin="round"/>
<path d="M6.37292 13.4902H1.99609" stroke="#B891F8" stroke-width="1.5" stroke-linecap="round" stroke-linejoin="round"/>
<path d="M8.99877 7.98788H3.74658" stroke="#B891F8" stroke-width="1.5" stroke-linecap="round" stroke-linejoin="round"/>
</svg>
