<svg width="44" height="44" viewBox="0 0 44 44" fill="none" xmlns="http://www.w3.org/2000/svg">
<path d="M22 44C34.1503 44 44 34.1503 44 22C44 9.84974 34.1503 0 22 0C9.84974 0 0 9.84974 0 22C0 34.1503 9.84974 44 22 44Z" fill="#3D5CFF"/>
<path d="M26 29C25.7348 29 25.4804 28.8946 25.2929 28.7071C25.1054 28.5196 25 28.2652 25 28V16C25 15.7348 25.1054 15.4804 25.2929 15.2929C25.4804 15.1054 25.7348 15 26 15C26.2652 15 26.5196 15.1054 26.7071 15.2929C26.8946 15.4804 27 15.7348 27 16V28C27 28.2652 26.8946 28.5196 26.7071 28.7071C26.5196 28.8946 26.2652 29 26 29ZM18 29C17.7348 29 17.4804 28.8946 17.2929 28.7071C17.1054 28.5196 17 28.2652 17 28V16C17 15.7348 17.1054 15.4804 17.2929 15.2929C17.4804 15.1054 17.7348 15 18 15C18.2652 15 18.5196 15.1054 18.7071 15.2929C18.8946 15.4804 19 15.7348 19 16V28C19 28.2652 18.8946 28.5196 18.7071 28.7071C18.5196 28.8946 18.2652 29 18 29Z" fill="white"/>
</svg>
