<svg width="36" height="50" viewBox="0 0 36 50" fill="none" xmlns="http://www.w3.org/2000/svg">
<path d="M18 36C27.9411 36 36 27.9411 36 18C36 8.05887 27.9411 0 18 0C8.05887 0 0 8.05887 0 18C0 27.9411 8.05887 36 18 36Z" fill="#EAEAFF"/>
<path d="M18 36C14.4399 36 10.9598 34.9443 7.99974 32.9665C5.03966 30.9886 2.73255 28.1774 1.37018 24.8883C0.00779915 21.5992 -0.348661 17.98 0.345873 14.4884C1.04041 10.9967 2.75474 7.78943 5.27209 5.27209C7.78943 2.75474 10.9967 1.04041 14.4884 0.345873C17.98 -0.348661 21.5992 0.00779915 24.8883 1.37018C28.1774 2.73255 30.9886 5.03966 32.9665 7.99974C34.9443 10.9598 36 14.4399 36 18C36 22.7739 34.1036 27.3523 30.7279 30.7279C27.3523 34.1036 22.7739 36 18 36Z" fill="#FFEBF0"/>
<path d="M27.0381 40.2969L29.6711 47.3309C31.9597 46.2485 34.0892 44.8575 36.0001 43.1969C35.5381 41.8409 35.1381 40.8149 35.1381 40.8149L27.0381 40.2969Z" fill="#DA5742"/>
<path d="M6.356 47.4663L9.1 40.1113L1 40.6293C1 40.6383 0.518 41.8783 0 43.4323C1.92373 45.062 4.06243 46.4194 6.356 47.4663V47.4663Z" fill="#DA5742"/>
<path d="M27.0381 40.2969L27.9481 42.6889L35.9821 43.1889C35.5451 41.9309 35.1381 40.8149 35.1381 40.8149L27.0381 40.2969Z" fill="#C43D28"/>
<path d="M9.18521 39.8516L8.27521 42.2436L0.116211 43.0386C0.553211 41.7886 1.08921 40.3696 1.08921 40.3696L9.18521 39.8516Z" fill="#C43D28"/>
<path d="M8.84677 29.2788C5.30977 30.8898 1.43777 35.8528 0.00976562 41.6728H6.32977L5.28477 46.9568C9.17858 48.947 13.4898 49.9829 17.8628 49.9788C22.2528 49.9862 26.5807 48.9424 30.4848 46.9348L29.3778 42.3558L35.7688 41.7848C35.7598 41.7848 34.2868 33.5728 27.5478 29.6848C22.1468 26.5788 13.8278 27.0428 8.84677 29.2788Z" fill="#3D5CFF"/>
<path d="M8.05195 35.6836L4.29395 41.6736L6.42695 41.6646L8.05195 35.6836Z" fill="#224BF4"/>
<path d="M29.3771 42.3516L31.2771 42.1906L27.0381 34.9336L29.3771 42.3516Z" fill="#224BF4"/>
<path d="M6.40871 41.7637C6.38656 41.7572 6.36768 41.7426 6.35582 41.7227C6.34396 41.7029 6.34 41.6793 6.34471 41.6567L8.13171 35.0327C8.13825 35.0106 8.15289 34.9917 8.17271 34.9798C8.19254 34.968 8.2161 34.964 8.23871 34.9687C8.26049 34.9757 8.27891 34.9905 8.29037 35.0103C8.30183 35.03 8.30552 35.0534 8.30071 35.0757L6.51571 41.7007C6.51064 41.7182 6.50017 41.7336 6.4858 41.7447C6.47142 41.7559 6.45389 41.7622 6.43571 41.7627L6.40871 41.7637Z" fill="#1F1F39"/>
<path d="M29.2068 42.3511L26.9218 34.9341C26.9181 34.9236 26.9165 34.9125 26.9171 34.9013C26.9178 34.8902 26.9207 34.8793 26.9256 34.8694C26.9306 34.8594 26.9375 34.8505 26.9459 34.8432C26.9544 34.836 26.9642 34.8305 26.9748 34.8271C26.9853 34.8234 26.9965 34.8218 27.0076 34.8224C27.0187 34.8231 27.0296 34.8259 27.0396 34.8309C27.0496 34.8358 27.0584 34.8427 27.0657 34.8512C27.073 34.8597 27.0784 34.8695 27.0818 34.8801L29.3758 42.2981C29.3796 42.3087 29.3811 42.3199 29.3804 42.331C29.3797 42.3422 29.3767 42.3531 29.3717 42.3631C29.3666 42.3731 29.3596 42.382 29.351 42.3892C29.3425 42.3964 29.3325 42.4018 29.3218 42.4051C29.3038 42.4051 29.2948 42.4141 29.2858 42.4141C29.2677 42.4133 29.2503 42.4067 29.2361 42.3954C29.2219 42.3841 29.2117 42.3686 29.2068 42.3511V42.3511Z" fill="#1F1F39"/>
<path d="M10.8036 15.1471C9.85139 15.6678 9.75192 17.2353 10.4705 18.2207C11.1891 19.2061 13 18.9769 13 18.9769L12.7369 15.4525C12.4583 15.2228 12.1376 15.0752 11.8014 15.0221C11.4652 14.969 11.1231 15.0118 10.8036 15.1471Z" fill="#C43D28"/>
<path d="M25.1964 15.1717C26.1486 15.6884 26.2481 17.2471 25.5295 18.2257C24.8109 19.2043 23 18.9772 23 18.9772L23.485 15.4266C23.7228 15.2026 24.0084 15.0603 24.3103 15.0154C24.6122 14.9704 24.9188 15.0245 25.1964 15.1717V15.1717Z" fill="#C43D28"/>
<path d="M14.9656 23.4255L14.5996 28.4955C14.5996 28.4955 15.1086 29.6115 17.7996 29.6115C20.7186 29.6115 21.5216 28.4955 21.5216 28.4955L21.3836 23.5015C21.3836 23.5015 23.2046 23.2066 24.0836 19.9226C24.6094 17.9051 24.738 15.0715 24.501 13.0002C24.501 13.0002 23.958 9.78418 22.501 7.99918C21.044 6.21418 16.2962 5.20517 13.5007 7.99937C11.5001 9.99877 11.8766 16.5886 12.4306 19.3286C12.7794 20.945 13.6747 22.3919 14.9656 23.4255Z" fill="#DA5742"/>
<path d="M17.812 16.8832C18.035 17.3292 18.612 17.1062 18.612 17.1062C18.612 17.1062 18.032 16.9542 18.032 16.5062C18.032 16.0582 17.991 14.5352 17.991 14.5352C17.8015 15.3025 17.741 16.096 17.812 16.8832V16.8832Z" fill="#1F1F39"/>
<path d="M14.7598 27.1258C14.8048 27.1128 19.5888 25.2558 20.4908 24.4078C20.4908 23.8898 20.5088 23.5078 20.5088 23.5078C19.567 23.911 18.5372 24.0646 17.5188 23.9538C16.64 23.9576 15.77 23.7777 14.9648 23.4258C14.9738 23.8808 14.8048 26.9428 14.7598 27.1258Z" fill="#C43D28"/>
<path d="M18.3024 18.731C18.6854 18.5701 19.0458 18.36 19.3744 18.106C19.3744 18.106 19.5534 18.017 19.6424 18.106C19.5744 18.3711 19.452 18.6191 19.2829 18.8343C19.1139 19.0495 18.9019 19.2272 18.6604 19.356C18.4189 19.4359 18.158 19.4356 17.9166 19.355C17.6753 19.2744 17.4665 19.118 17.3214 18.909C17.0534 18.552 17.4104 18.641 17.4104 18.641C17.6971 18.7381 18.0021 18.7688 18.3024 18.731V18.731Z" fill="white"/>
<g opacity="0.592">
<g opacity="0.592">
<path opacity="0.592" d="M12.9886 33.8878C13.0745 33.9325 13.1685 33.9595 13.2651 33.9671C13.3616 33.9746 13.4587 33.9626 13.5506 33.9318C13.7826 33.8698 14.0236 33.7528 14.2556 33.8778C14.3545 33.9319 14.4327 34.0173 14.4779 34.1206C14.5232 34.224 14.5329 34.3394 14.5056 34.4488C14.4876 34.5288 14.6126 34.5648 14.6306 34.4848C14.6562 34.3841 14.6567 34.2786 14.6321 34.1777C14.6075 34.0768 14.5585 33.9834 14.4894 33.9058C14.4203 33.8282 14.3332 33.7688 14.2358 33.7327C14.1383 33.6966 14.0335 33.6849 13.9306 33.6988C13.7024 33.7689 13.468 33.8168 13.2306 33.8418C12.9796 33.8248 12.9166 33.5928 12.8726 33.3698C12.8708 33.3614 12.8674 33.3535 12.8626 33.3465C12.8577 33.3395 12.8516 33.3335 12.8444 33.3288C12.8373 33.3242 12.8293 33.321 12.8209 33.3194C12.8125 33.3179 12.8039 33.318 12.7956 33.3198C12.7872 33.3216 12.7793 33.3249 12.7723 33.3298C12.7653 33.3346 12.7593 33.3408 12.7546 33.3479C12.75 33.3551 12.7468 33.3631 12.7452 33.3715C12.7437 33.3798 12.7438 33.3884 12.7456 33.3968C12.7608 33.5855 12.8477 33.7612 12.9886 33.8878V33.8878Z" fill="#BFE3C6"/>
<path opacity="0.592" d="M11.7308 38.3239C11.8351 38.5219 11.9968 38.6836 12.1948 38.7879C12.3998 38.9129 12.6148 39.0739 12.5608 39.3409C12.4978 39.6299 12.2218 39.7879 11.9888 39.9209C11.9751 39.9309 11.9656 39.9457 11.9622 39.9624C11.9589 39.9791 11.9619 39.9964 11.9707 40.011C11.9795 40.0255 11.9934 40.0363 12.0097 40.0411C12.026 40.0459 12.0435 40.0444 12.0588 40.0369C12.3057 39.9231 12.5113 39.7359 12.6478 39.5009C12.6959 39.4012 12.7131 39.2894 12.6973 39.1798C12.6814 39.0702 12.6332 38.9679 12.5588 38.8859C12.3998 38.7159 12.1678 38.6359 12.0068 38.4749C11.9077 38.3749 11.8411 38.2474 11.8156 38.109C11.79 37.9705 11.8069 37.8276 11.8638 37.6989C11.8818 37.6299 11.7478 37.6009 11.7218 37.6719C11.679 37.7755 11.6577 37.8867 11.6593 37.9988C11.6608 38.1109 11.6852 38.2215 11.7308 38.3239V38.3239Z" fill="#BFE3C6"/>
<path opacity="0.592" d="M4.74938 35.9939C4.73154 35.9115 4.7391 35.8256 4.77106 35.7476C4.80301 35.6696 4.85786 35.6031 4.92838 35.5569C5.26738 35.3429 5.60638 35.6569 5.93738 35.6819C6.23738 35.7089 6.43738 35.4409 6.51738 35.1729C6.55449 35.0396 6.56335 34.9 6.54337 34.7631C6.52339 34.6262 6.47503 34.495 6.40138 34.3779C6.39121 34.3648 6.3766 34.3558 6.3603 34.3528C6.34401 34.3497 6.32714 34.3526 6.31288 34.3611C6.29863 34.3696 6.28796 34.383 6.2829 34.3988C6.27783 34.4146 6.27871 34.4317 6.28538 34.4469C6.36915 34.5767 6.41519 34.7273 6.41837 34.8818C6.42155 35.0363 6.38174 35.1887 6.30338 35.3219C6.26644 35.4062 6.19917 35.4736 6.11489 35.5106C6.03061 35.5477 5.93548 35.5517 5.84838 35.5219C5.69098 35.4589 5.53004 35.4051 5.36638 35.3609C5.2345 35.3245 5.09428 35.3328 4.96763 35.3846C4.84098 35.4363 4.73505 35.5286 4.66638 35.6469C4.6159 35.7836 4.60043 35.9307 4.62138 36.0749C4.62984 36.2528 4.65665 36.4294 4.70138 36.6019C4.71938 36.6819 4.84438 36.6469 4.82638 36.5659C4.77887 36.3788 4.75304 36.1869 4.74938 35.9939V35.9939Z" fill="#BFE3C6"/>
<path opacity="0.592" d="M9.26633 45.1337C9.30305 45.1205 9.34232 45.1161 9.38102 45.1208C9.41973 45.1255 9.45682 45.1391 9.48933 45.1607C9.61822 45.2464 9.73786 45.3452 9.84633 45.4557C10.0782 45.6501 10.3591 45.7767 10.6583 45.8217C10.7881 45.8421 10.9208 45.8328 11.0464 45.7944C11.1721 45.7561 11.2874 45.6898 11.3836 45.6004C11.4799 45.5111 11.5547 45.4011 11.6023 45.2786C11.6498 45.1562 11.669 45.0246 11.6583 44.8937C11.6413 44.8127 11.5163 44.8477 11.5343 44.9287C11.5482 45.0844 11.5089 45.2403 11.4228 45.3709C11.3367 45.5014 11.209 45.599 11.0603 45.6477C10.9026 45.6929 10.7368 45.7022 10.5751 45.6751C10.4133 45.6479 10.2596 45.5849 10.1253 45.4907C9.98397 45.3996 9.8517 45.2951 9.73033 45.1787C9.63807 45.0843 9.52024 45.0189 9.39133 44.9907C9.17733 44.9647 8.94533 45.1787 9.05233 45.3927C9.08833 45.4647 9.20433 45.4017 9.16833 45.3217C9.13233 45.2417 9.20433 45.1697 9.26633 45.1337Z" fill="#BFE3C6"/>
<path opacity="0.592" d="M18.3447 43.3855C18.353 43.5108 18.3914 43.6322 18.4567 43.7395C18.5219 43.8467 18.6122 43.9366 18.7197 44.0015C18.9427 44.1715 19.2647 44.3225 19.3197 44.6265C19.3737 44.9655 18.9807 45.0375 18.7307 45.0105C18.6417 45.0015 18.6507 45.1355 18.7307 45.1445C18.8516 45.1697 18.9771 45.1615 19.0936 45.1206C19.2101 45.0797 19.3132 45.0077 19.3917 44.9125C19.4493 44.795 19.4647 44.6614 19.4354 44.5339C19.406 44.4065 19.3338 44.293 19.2307 44.2125C19.0257 44.0075 18.7307 43.9125 18.5697 43.6595C18.5012 43.5064 18.484 43.3354 18.5205 43.1718C18.5571 43.0082 18.6456 42.8607 18.7727 42.7515C18.8267 42.6985 18.7287 42.6005 18.6747 42.6625C18.4795 42.8546 18.362 43.1121 18.3447 43.3855V43.3855Z" fill="#BFE3C6"/>
<path opacity="0.592" d="M25.824 44.9558C25.7602 45.07 25.729 45.1995 25.7337 45.3301C25.7385 45.4608 25.779 45.5876 25.851 45.6968C25.9401 45.8263 26.0035 45.9715 26.038 46.1248C26.0553 46.2746 26.0137 46.4252 25.922 46.5448C25.8739 46.6046 25.8138 46.6536 25.7456 46.6886C25.6774 46.7236 25.6026 46.7439 25.526 46.7482C25.4494 46.7524 25.3728 46.7405 25.3011 46.7132C25.2295 46.686 25.1643 46.6439 25.11 46.5898C25.0967 46.5766 25.0787 46.5691 25.06 46.5691C25.0412 46.5691 25.0232 46.5766 25.01 46.5898C24.9967 46.6031 24.9893 46.6211 24.9893 46.6398C24.9893 46.6586 24.9967 46.6766 25.01 46.6898C25.1113 46.7841 25.2378 46.8469 25.3741 46.8707C25.5104 46.8945 25.6507 46.8782 25.778 46.8238C25.9008 46.7641 26.0035 46.6696 26.0734 46.5521C26.1432 46.4347 26.1771 46.2994 26.171 46.1628C26.155 45.8488 25.86 45.6248 25.86 45.3038C25.8627 45.1554 25.921 45.0135 26.0234 44.906C26.1258 44.7986 26.2649 44.7336 26.413 44.7238C26.4307 44.7238 26.4478 44.7168 26.4603 44.7042C26.4729 44.6917 26.48 44.6746 26.48 44.6568C26.48 44.6391 26.4729 44.622 26.4603 44.6095C26.4478 44.5969 26.4307 44.5898 26.413 44.5898C26.2917 44.5956 26.174 44.6322 26.0709 44.6963C25.9678 44.7603 25.8828 44.8497 25.824 44.9558V44.9558Z" fill="#BFE3C6"/>
<path opacity="0.592" d="M21.8881 32.6552C22.0025 32.8933 22.1598 33.1082 22.3521 33.2892C22.4591 33.4052 22.5521 33.5752 22.3791 33.6822C22.2291 33.7638 22.0581 33.7986 21.8881 33.7822C21.8703 33.7822 21.8533 33.7893 21.8407 33.8019C21.8282 33.8144 21.8211 33.8315 21.8211 33.8492C21.8211 33.867 21.8282 33.884 21.8407 33.8966C21.8533 33.9092 21.8703 33.9162 21.8881 33.9162C22.1111 33.9252 22.5041 33.8802 22.5931 33.6392C22.6821 33.3982 22.4501 33.2002 22.3071 33.0482C22.0876 32.8389 21.9593 32.5515 21.9501 32.2482C21.95 32.1149 21.9911 31.9847 22.0677 31.8756C22.1443 31.7664 22.2527 31.6835 22.3781 31.6382C22.3872 31.6359 22.3957 31.6319 22.4032 31.6263C22.4107 31.6207 22.417 31.6137 22.4218 31.6056C22.4266 31.5976 22.4297 31.5887 22.4311 31.5795C22.4324 31.5702 22.4319 31.5608 22.4296 31.5517C22.4273 31.5427 22.4233 31.5342 22.4177 31.5267C22.4121 31.5192 22.4051 31.5128 22.397 31.5081C22.389 31.5033 22.3801 31.5001 22.3708 31.4988C22.3616 31.4974 22.3522 31.4979 22.3431 31.5002C22.2351 31.5433 22.137 31.608 22.055 31.6904C21.9729 31.7728 21.9086 31.8712 21.8659 31.9794C21.8233 32.0876 21.8033 32.2034 21.8071 32.3196C21.8109 32.4358 21.8385 32.5501 21.8881 32.6552V32.6552Z" fill="#BFE3C6"/>
<path opacity="0.592" d="M21.781 37.8584C22.049 38.0014 22.102 38.3314 22.192 38.5904C22.2251 38.718 22.2875 38.8361 22.3743 38.9352C22.4612 39.0344 22.57 39.1118 22.692 39.1614C22.9546 39.2551 23.2415 39.2551 23.504 39.1614C23.654 39.0932 23.7888 38.9956 23.9006 38.8746C24.0124 38.7535 24.0989 38.6113 24.155 38.4564C24.191 38.3764 24.055 38.3404 24.03 38.4204C23.9756 38.5676 23.8899 38.7013 23.7789 38.8123C23.668 38.9233 23.5343 39.009 23.387 39.0634C23.2417 39.1068 23.0881 39.1148 22.939 39.0868C22.79 39.0588 22.6497 38.9956 22.53 38.9024C22.316 38.7024 22.298 38.3844 22.191 38.1254C22.1495 38.0146 22.0827 37.9149 21.9959 37.8344C21.9091 37.7538 21.8047 37.6946 21.691 37.6614C21.5602 37.6292 21.4233 37.6312 21.2936 37.6673C21.1638 37.7034 21.0455 37.7723 20.95 37.8674C20.879 37.9474 20.968 38.0374 21.03 37.9744C21.1249 37.875 21.25 37.8096 21.3858 37.7887C21.5216 37.7677 21.6606 37.7922 21.781 37.8584V37.8584Z" fill="#BFE3C6"/>
<path opacity="0.592" d="M30.0027 35.334C29.9289 35.5605 29.931 35.8049 30.0087 36.03C30.0537 36.262 30.0627 36.53 29.8297 36.664C29.7274 36.7157 29.6096 36.7278 29.499 36.6981C29.3883 36.6684 29.2924 36.599 29.2297 36.503C29.1847 36.432 29.0687 36.503 29.1137 36.574C29.1714 36.6654 29.2522 36.7399 29.3479 36.7901C29.4435 36.8403 29.5507 36.8644 29.6587 36.86C29.7656 36.8514 29.8678 36.8123 29.9532 36.7475C30.0386 36.6826 30.1037 36.5947 30.1407 36.494C30.1823 36.2406 30.1656 35.981 30.0917 35.735C30.0631 35.6038 30.0852 35.4666 30.1537 35.351C30.1826 35.3036 30.226 35.2667 30.2775 35.2458C30.329 35.2249 30.3859 35.2211 30.4397 35.235C30.5197 35.244 30.5557 35.119 30.4757 35.092C30.381 35.0709 30.2819 35.0835 30.1955 35.1277C30.1092 35.1719 30.041 35.2449 30.0027 35.334Z" fill="#BFE3C6"/>
</g>
<path opacity="0.592" d="M35.4345 40.5272L35.4438 40.6157L28.936 41.2936L28.9268 41.2051L35.4345 40.5272Z" fill="#BFE3C6"/>
<path opacity="0.592" d="M6.75699 40.1662L6.7589 40.2552L0.315389 40.3937L0.313477 40.3047L6.75699 40.1662Z" fill="#BFE3C6"/>
</g>
</svg>
